<svg width="293" height="302" viewBox="0 0 293 302" fill="none" xmlns="http://www.w3.org/2000/svg">
<path d="M164.842 119.446C164.398 119.446 164.04 119.089 164.04 118.646V75.4096C164.04 72.4806 161.655 70.1011 158.72 70.1011H134.018C131.082 70.1011 128.698 72.4806 128.698 75.4096V85.6478C128.698 86.0907 128.34 86.4481 127.896 86.4481C127.452 86.4481 127.094 86.0907 127.094 85.6478V75.4096C127.094 71.6002 130.2 68.5005 134.018 68.5005H158.72C162.537 68.5005 165.644 71.6002 165.644 75.4096V118.646C165.644 119.089 165.285 119.446 164.842 119.446Z" fill="#6A2EA0"/>
<path d="M91.137 172.847L65.4622 150.145L85.0418 137.57C91.2226 147.969 94.1152 153.992 94.1152 153.992V123.992L83.6249 106.263L80.1549 112.863L62.853 99.21C62.853 99.21 47.5133 105.842 41.7495 119.628C32.7136 141.241 36.1943 185.672 36.1943 185.672C60.2865 182.631 94.1152 190.602 94.1152 190.602V172.462L91.137 172.847ZM75.776 48.9951C65.5049 48.9951 58.5489 58.241 59.7946 68.4152C60.7945 76.5888 69.7128 76.5888 70.7073 86.6296V77.7945C70.7073 75.3723 72.5626 73.3823 74.9793 73.1422C76.0059 73.0409 77.1714 72.8328 78.4012 72.4433C81.7643 71.3816 83.6303 67.8017 82.6358 64.4298L80.9569 58.7478H99.9377V57.1259C99.9377 52.6337 96.2859 48.9897 91.784 48.9897H75.776V48.9951ZM222.548 199.928C216.17 199.912 214.732 197.485 214.732 197.485C214.732 197.485 227.617 195.164 230.012 193.328C230.665 191.899 234.6 183.586 236.289 180.012L209.791 166.332L196.815 191.312L219.03 202.777L222.548 199.928ZM247.261 185.672L236.386 200.84L228.323 207.573L244.871 216.115L257.847 191.136L247.261 185.672ZM233.13 83.5085C245.946 71.0935 245.571 49.1018 219.036 53.7914C214.464 54.597 210.476 56.1496 207.305 57.7448C207.086 55.5467 205.867 52.7937 200.868 53.8715C192.912 55.5894 186.859 69.5943 186.859 69.5943H200.21V62.9733C203.942 63.1974 217.635 64.6059 217.635 73.3716C217.635 73.3716 223.687 70.8641 223.944 75.3884C224.163 79.267 220.538 82.6229 220.538 82.6229L226.623 104.124C226.623 104.124 246.058 98.7672 252.228 126.868C252.228 126.868 258.339 113.482 258.339 103.014C258.339 92.5464 251.03 80.5795 233.13 83.5085ZM160.917 117.275C160.917 120.455 158.334 123.026 155.153 123.026C151.972 123.026 149.389 120.45 149.389 117.275C149.389 114.095 151.972 111.524 155.153 111.524C158.334 111.524 160.917 114.095 160.917 117.275ZM153.592 67.3162H149.331C149.32 67.3162 149.315 67.3055 149.32 67.3002C149.678 66.7667 149.892 66.1264 149.913 65.4382C149.967 63.3681 148.154 61.6609 146.09 61.8316C144.278 61.981 142.85 63.4962 142.85 65.3475C142.85 66.0731 143.07 66.7453 143.444 67.3002C143.449 67.3055 143.444 67.3162 143.433 67.3162H139.584C138.22 67.3162 137.108 68.4206 137.108 69.7864C137.108 71.1469 138.215 72.2566 139.584 72.2566H153.597C154.961 72.2566 156.073 71.1522 156.073 69.7864C156.067 68.4206 154.961 67.3162 153.592 67.3162ZM146.438 67.1081C145.385 67.1081 144.529 66.2545 144.529 65.2034C144.529 64.1524 145.385 63.2988 146.438 63.2988C147.491 63.2988 148.347 64.1524 148.347 65.2034C148.347 66.2598 147.491 67.1081 146.438 67.1081ZM200.809 125.55C200.809 125.55 191.329 103.772 206.038 94.435C206.038 94.435 211.898 94.0936 212.935 93.2079V106.871C212.935 106.871 207.503 109.134 205.637 113.338C203.776 117.542 202.776 123.784 200.809 125.55Z" fill="url(#paint0_linear_6694_76389)"/>
<path d="M241.76 170.206C241.418 170.206 241.102 169.987 240.995 169.645L229.248 132.374C229.115 131.952 229.35 131.504 229.772 131.371C230.195 131.237 230.644 131.472 230.778 131.894L242.524 169.165C242.658 169.587 242.423 170.035 242 170.168C241.92 170.195 241.84 170.206 241.76 170.206Z" fill="#6A2EA0"/>
<path d="M192.49 215.358C192.356 215.358 192.217 215.326 192.094 215.251C191.709 215.032 191.576 214.541 191.795 214.157C191.87 214.024 199.339 200.91 201.905 193.937C208.535 175.898 207.375 158.708 198.799 147.942C196.676 145.28 195.318 142.447 194.768 139.523C194.11 136.044 194.998 132.401 197.2 129.519C202.194 122.984 203.429 117.286 203.44 117.233C204.59 111.833 207.862 107.885 212.663 106.119C213.08 105.965 213.54 106.178 213.695 106.594C213.85 107.01 213.636 107.469 213.219 107.624C210.204 108.734 206.333 111.364 205.012 117.563C204.964 117.803 203.713 123.651 198.478 130.496C196.553 133.014 195.773 136.199 196.345 139.235C196.847 141.897 198.093 144.495 200.056 146.955C208.979 158.159 210.236 175.93 203.413 194.497C200.804 201.598 193.5 214.419 193.19 214.958C193.041 215.214 192.768 215.358 192.49 215.358Z" fill="#6A2EA0"/>
<path d="M148.791 164.294C147.764 164.294 147.171 164.097 147.107 164.07C146.85 163.98 146.657 163.766 146.599 163.499C146.534 163.238 146.609 162.961 146.802 162.763L152.517 156.793C152.624 156.681 152.737 156.569 152.854 156.462C155.287 154.163 158.848 153.416 162.147 154.515L172.423 157.94C174.653 157.748 190.565 152.605 200.916 149.121C201.338 148.977 201.793 149.206 201.932 149.623C202.071 150.044 201.846 150.497 201.429 150.636C198.718 151.549 174.856 159.541 172.311 159.541C172.225 159.541 172.14 159.525 172.054 159.498L161.639 156.025C158.901 155.112 155.961 155.721 153.956 157.615C153.859 157.705 153.769 157.796 153.678 157.892L149.101 162.672C150.673 162.598 153.442 161.931 157.009 158.943C157.346 158.66 157.853 158.703 158.137 159.039C158.42 159.375 158.377 159.882 158.041 160.165C153.897 163.649 150.641 164.294 148.791 164.294Z" fill="#6A2EA0"/>
<path d="M172.305 170.067C172.188 170.067 172.065 170.04 171.947 169.982L155.265 161.712C154.87 161.515 154.709 161.035 154.902 160.64C155.099 160.245 155.581 160.085 155.976 160.277L172.658 168.547C173.054 168.744 173.214 169.224 173.022 169.619C172.883 169.907 172.599 170.067 172.305 170.067Z" fill="#6A2EA0"/>
<path d="M167.932 173.092C167.809 173.092 167.692 173.065 167.574 173.007C164.441 171.444 156.667 167.848 156.592 167.81C156.191 167.623 156.015 167.149 156.202 166.749C156.389 166.348 156.865 166.172 157.266 166.359C157.346 166.396 165.136 169.998 168.291 171.572C168.686 171.769 168.847 172.249 168.649 172.644C168.505 172.932 168.226 173.092 167.932 173.092Z" fill="#6A2EA0"/>
<path d="M162.96 175.674C162.837 175.674 162.719 175.648 162.602 175.589L153.951 171.283C153.555 171.086 153.395 170.606 153.593 170.211C153.79 169.816 154.272 169.656 154.667 169.854L163.318 174.159C163.714 174.357 163.874 174.837 163.676 175.231C163.537 175.509 163.254 175.674 162.96 175.674Z" fill="#6A2EA0"/>
<path d="M206.787 168.552H169.269C168.825 168.552 168.467 168.194 168.467 167.751C168.467 167.309 168.825 166.951 169.269 166.951H206.787C207.23 166.951 207.589 167.309 207.589 167.751C207.589 168.194 207.23 168.552 206.787 168.552Z" fill="#6A2EA0"/>
<path d="M157.341 176.939C157.223 176.939 157.105 176.912 156.993 176.859L149.738 173.364C149.337 173.172 149.171 172.692 149.363 172.297C149.556 171.897 150.037 171.732 150.433 171.924L157.688 175.418C158.089 175.61 158.255 176.09 158.062 176.485C157.923 176.773 157.64 176.939 157.341 176.939Z" fill="#6A2EA0"/>
<path d="M151.999 178.208C151.769 178.208 146.337 178.128 140.423 171.081C137.274 167.33 130.489 168.525 130.42 168.536L91.2444 173.642C91.0145 173.668 90.7793 173.599 90.6082 173.444L64.9654 150.705C64.6339 150.412 64.6018 149.905 64.9012 149.574C65.1953 149.244 65.7032 149.212 66.0347 149.51L91.4048 172.004L130.179 166.951C130.452 166.898 137.905 165.575 141.664 170.046C147.059 176.469 151.967 176.603 152.015 176.603C152.459 176.608 152.812 176.965 152.812 177.408C152.796 177.856 152.443 178.208 151.999 178.208Z" fill="#6A2EA0"/>
<path d="M207.744 94.9259C206.418 94.9259 205.22 94.6272 204.161 94.0296C201.05 92.2743 199.408 87.9848 199.408 81.6306V62.9734C199.408 62.5306 199.766 62.1731 200.21 62.1731C200.654 62.1731 201.012 62.5306 201.012 62.9734V81.6306C201.012 87.3713 202.376 91.1806 204.953 92.6318C207.332 93.9763 210.898 93.304 215.256 90.6951C215.635 90.4657 216.127 90.5884 216.357 90.9672C216.587 91.346 216.464 91.8368 216.085 92.0663C212.903 93.9709 210.118 94.9259 207.744 94.9259Z" fill="#6A2EA0"/>
<path d="M89.7942 117.504C89.3504 117.504 88.9922 117.147 88.9922 116.704V94.435C88.9922 93.9922 89.3504 93.6348 89.7942 93.6348C90.238 93.6348 90.5962 93.9922 90.5962 94.435V116.704C90.5962 117.147 90.238 117.504 89.7942 117.504Z" fill="#6A2EA0"/>
<path d="M70.7024 93.8855C70.2586 93.8855 69.9004 93.528 69.9004 93.0852V84.5222C69.9004 84.0794 70.2586 83.7219 70.7024 83.7219C71.1462 83.7219 71.5044 84.0794 71.5044 84.5222V93.0799C71.5044 93.528 71.1462 93.8855 70.7024 93.8855Z" fill="#6A2EA0"/>
<path d="M80.1504 113.663C79.974 113.663 79.7975 113.605 79.6532 113.493L62.3512 99.8397C62.0732 99.621 61.9716 99.2422 62.1053 98.9167L65.7303 89.8629C65.8212 89.6388 66.0084 89.4627 66.2436 89.3934C66.4789 89.324 66.7302 89.3614 66.9333 89.5001L82.7115 100.373C84.7967 101.723 85.5024 104.423 84.3369 106.637L80.8669 113.236C80.7546 113.45 80.5567 113.599 80.3215 113.647C80.2627 113.658 80.2039 113.663 80.1504 113.663ZM63.8109 98.9541L79.8884 111.636L82.9093 105.895C83.6846 104.417 83.2141 102.614 81.8132 101.702L66.8424 91.3887L63.8109 98.9541Z" fill="#6A2EA0"/>
<path d="M94.1094 154.787C93.7939 154.787 93.4945 154.6 93.3662 154.291C91.42 149.596 88.3403 144.159 84.2126 138.131C83.9613 137.768 84.0575 137.266 84.4211 137.021C84.7847 136.77 85.2873 136.866 85.5332 137.229C89.7251 143.348 92.8582 148.886 94.8472 153.683C95.0183 154.094 94.8205 154.558 94.4141 154.728C94.3179 154.771 94.2109 154.787 94.1094 154.787Z" fill="#6A2EA0"/>
<path d="M95.4727 96.3344C92.3609 96.3344 87.3189 94.9845 82.1594 91.7888C81.7851 91.554 81.6675 91.0632 81.9027 90.6844C82.138 90.3056 82.6299 90.1935 83.0095 90.4283C88.3669 93.7521 93.489 94.9685 96.1998 94.7018C97.9001 94.0989 100.942 79.139 99.1298 58.8225C99.0924 58.3797 99.4185 57.9956 99.857 57.9529C100.29 57.9155 100.686 58.241 100.728 58.6785C101.53 67.7003 101.477 76.8662 100.573 84.4955C99.9478 89.7507 98.7128 96.0569 96.3602 96.2917C96.0822 96.3184 95.7881 96.3344 95.4727 96.3344Z" fill="#6A2EA0"/>
<path d="M100.483 80.8678C100.04 80.8678 99.6814 80.5103 99.6814 80.0675C99.6814 79.6247 100.04 79.2672 100.483 79.2672C101.018 79.2672 101.494 79.0111 101.788 78.5683C102.082 78.1255 102.136 77.5866 101.927 77.0958L99.7402 71.8993C99.5691 71.4938 99.7616 71.0243 100.168 70.8536C100.574 70.6829 101.045 70.875 101.216 71.2804L103.403 76.4769C103.814 77.4586 103.707 78.5683 103.119 79.454C102.537 80.3396 101.553 80.8678 100.483 80.8678Z" fill="#6A2EA0"/>
<path d="M99.3596 88.1875C99.3436 88.1875 99.3329 88.1875 99.3168 88.1875C93.9968 87.9048 91.778 84.5703 91.6871 84.4316C91.4465 84.0581 91.5534 83.5673 91.9277 83.3272C92.2966 83.0871 92.7938 83.1938 93.0344 83.5619C93.1146 83.6846 94.9432 86.3576 99.4077 86.5923C99.8515 86.6137 100.188 86.9925 100.167 87.4353C100.135 87.8568 99.782 88.1875 99.3596 88.1875Z" fill="#6A2EA0"/>
<path d="M70.7016 87.4353C70.3273 87.4353 70.0011 87.1739 69.9209 86.8058C68.5736 80.5956 65.943 78.2801 63.6225 76.2367C61.4999 74.3694 59.5002 72.6088 58.9976 68.5167C58.5699 65.0328 59.0618 61.5436 60.4145 58.4331C60.5909 58.0277 61.0614 57.8409 61.4678 58.017C61.8741 58.193 62.0613 58.6625 61.8848 59.068C60.6444 61.9224 60.1953 65.1181 60.5909 68.3193C61.0187 71.8085 62.6334 73.233 64.6812 75.031C66.3761 76.5248 68.3704 78.2748 69.9049 81.5879V77.7946C69.9049 77.3518 70.2631 76.9943 70.7069 76.9943C71.1507 76.9943 71.5089 77.3518 71.5089 77.7946V86.6297C71.5089 87.0405 71.1988 87.382 70.7925 87.4247C70.755 87.43 70.7283 87.4353 70.7016 87.4353Z" fill="#6A2EA0"/>
<path d="M99.9273 59.5481H80.9465C80.5028 59.5481 80.1445 59.1907 80.1445 58.7478C80.1445 58.305 80.5028 57.9476 80.9465 57.9476H99.1253V57.1259C99.1253 53.0818 95.8264 49.79 91.7736 49.79H84.7908C84.347 49.79 83.9888 49.4326 83.9888 48.9897C83.9888 48.5469 84.347 48.1895 84.7908 48.1895H91.7736C96.7086 48.1895 100.729 52.1962 100.729 57.1259V58.7478C100.729 59.1907 100.371 59.5481 99.9273 59.5481Z" fill="#6A2EA0"/>
<path d="M63.2221 152.386C62.9601 152.386 62.6981 152.258 62.5484 152.018C62.3078 151.644 62.4147 151.154 62.789 150.914L86.1969 135.879C86.5712 135.639 87.063 135.746 87.3036 136.119C87.5443 136.492 87.4373 136.989 87.063 137.223L63.6552 152.258C63.5215 152.343 63.3718 152.386 63.2221 152.386Z" fill="#6A2EA0"/>
<path d="M59.7357 147.622C59.4738 147.622 59.2118 147.494 59.0621 147.254C58.8215 146.88 58.9284 146.389 59.3027 146.149L82.7105 131.115C83.0848 130.874 83.5767 130.981 83.8173 131.355C84.0579 131.728 83.951 132.219 83.5767 132.459L60.1688 147.494C60.0352 147.584 59.8855 147.622 59.7357 147.622Z" fill="#6A2EA0"/>
<path d="M138.428 159.071C138.369 159.071 138.316 159.066 138.257 159.055C122.121 155.56 103.225 154.926 95.8521 154.814C93.7402 154.782 92.4997 154.792 92.489 154.792H92.4837C92.0453 154.792 91.687 154.44 91.6817 153.997C91.6764 153.554 92.0346 153.192 92.4784 153.192C92.4891 153.192 93.7455 153.181 95.8789 153.213C103.263 153.325 122.115 153.96 138.337 157.433C145.961 153.88 155.308 154.68 155.703 154.718C156.142 154.76 156.468 155.144 156.43 155.587C156.393 156.03 155.997 156.35 155.559 156.313C155.463 156.302 146.047 155.496 138.781 158.991C138.663 159.044 138.546 159.071 138.428 159.071Z" fill="#6A2EA0"/>
<path d="M217.634 74.172C217.613 74.172 217.597 74.172 217.575 74.172C217.137 74.14 216.8 73.7612 216.832 73.3237C216.837 73.2116 216.939 70.8802 214.709 68.538C212.608 66.3292 207.93 63.715 197.718 63.779H197.712C197.274 63.779 196.916 63.4215 196.91 62.9841C196.905 62.5412 197.263 62.1838 197.707 62.1784C206.427 62.1304 212.555 63.907 215.923 67.487C218.618 70.3573 218.447 73.3077 218.436 73.4357C218.404 73.8519 218.051 74.172 217.634 74.172Z" fill="#6A2EA0"/>
<path d="M199.194 84.0421C198.403 84.0421 197.804 83.7753 197.408 83.2365C197.029 82.7243 196.056 80.6062 199.515 74.6948C199.74 74.316 200.231 74.1826 200.611 74.4067C200.996 74.6308 201.124 75.1216 200.9 75.5004C199.36 78.136 198.103 81.4865 198.692 82.2761C198.831 82.4629 199.296 82.4842 199.927 82.3348C200.36 82.2334 200.793 82.4949 200.894 82.9217C200.996 83.3538 200.734 83.786 200.306 83.8874C199.905 83.9941 199.531 84.0421 199.194 84.0421Z" fill="#6A2EA0"/>
<path d="M201.188 89.5855C200.77 89.5855 200.423 89.2654 200.391 88.8439C200.359 88.4064 200.685 88.0223 201.129 87.9849C201.241 87.9742 203.551 87.7448 205.427 85.5147C205.711 85.1786 206.219 85.1306 206.556 85.4187C206.892 85.7014 206.941 86.2083 206.652 86.5444C204.315 89.3187 201.369 89.5748 201.246 89.5855C201.225 89.5855 201.209 89.5855 201.188 89.5855Z" fill="#6A2EA0"/>
<path d="M255.511 157.305H237.995C237.552 157.305 237.193 156.948 237.193 156.505C237.193 156.062 237.552 155.705 237.995 155.705H255.511C255.955 155.705 256.313 156.062 256.313 156.505C256.313 156.948 255.95 157.305 255.511 157.305Z" fill="#6A2EA0"/>
<path d="M216.598 209.782C216.368 209.782 216.138 209.681 215.978 209.489C215.694 209.147 215.742 208.646 216.085 208.363L225.981 200.222C226.324 199.939 226.826 199.987 227.11 200.328C227.393 200.67 227.345 201.171 227.003 201.454L217.106 209.596C216.956 209.724 216.774 209.782 216.598 209.782Z" fill="#6A2EA0"/>
<path d="M215.666 206.389C215.436 206.389 215.206 206.288 215.046 206.096C214.763 205.754 214.811 205.253 215.153 204.97L223.253 198.312C223.595 198.029 224.098 198.077 224.381 198.418C224.665 198.76 224.617 199.261 224.274 199.544L216.18 206.208C216.024 206.33 215.848 206.389 215.666 206.389Z" fill="#6A2EA0"/>
<path d="M221.35 210.214C221.12 210.214 220.89 210.113 220.73 209.921C220.446 209.58 220.494 209.078 220.837 208.795L228.921 202.142C229.263 201.86 229.766 201.908 230.049 202.249C230.332 202.59 230.284 203.092 229.942 203.375L221.858 210.028C221.708 210.156 221.526 210.214 221.35 210.214Z" fill="#6A2EA0"/>
<path d="M226.494 209.782C226.264 209.782 226.035 209.681 225.874 209.489C225.591 209.147 225.639 208.646 225.981 208.363L235.798 200.285L255.597 172.67C255.58 150.433 253.174 134.87 251.159 125.715C249.421 117.83 245.694 113.06 245.657 113.012C245.384 112.665 245.443 112.164 245.785 111.886C246.133 111.614 246.635 111.668 246.913 112.014C247.074 112.217 250.902 117.099 252.725 125.368C254.768 134.636 257.201 150.407 257.201 172.921C257.201 173.087 257.147 173.252 257.051 173.385L237.043 201.294C237.001 201.353 236.953 201.401 236.899 201.443L227.002 209.585C226.853 209.723 226.671 209.782 226.494 209.782Z" fill="#6A2EA0"/>
<path d="M214.731 198.285C214.309 198.285 213.956 197.954 213.929 197.527C213.902 197.084 214.245 196.706 214.683 196.684C219.57 196.412 227.756 193.345 229.413 192.704C230.456 190.415 237.241 175.568 241.064 169.005C241.288 168.621 241.775 168.493 242.16 168.717C242.545 168.941 242.673 169.427 242.449 169.811C238.364 176.827 230.814 193.494 230.739 193.659C230.654 193.846 230.499 193.995 230.306 194.075C229.905 194.235 220.463 197.965 214.769 198.285C214.758 198.285 214.742 198.285 214.731 198.285Z" fill="#6A2EA0"/>
<path d="M152.886 86.571H137.247C136.804 86.571 136.445 86.2136 136.445 85.7707C136.445 85.3279 136.804 84.9705 137.247 84.9705H152.886C153.33 84.9705 153.688 85.3279 153.688 85.7707C153.688 86.2136 153.33 86.571 152.886 86.571Z" fill="#6A2EA0"/>
<path d="M158.099 92.8664H137.247C136.804 92.8664 136.445 92.509 136.445 92.0661C136.445 91.6233 136.804 91.2659 137.247 91.2659H158.099C158.543 91.2659 158.901 91.6233 158.901 92.0661C158.901 92.509 158.543 92.8664 158.099 92.8664Z" fill="#6A2EA0"/>
<path d="M152.886 99.8449H137.247C136.804 99.8449 136.445 99.4875 136.445 99.0447C136.445 98.6018 136.804 98.2444 137.247 98.2444H152.886C153.33 98.2444 153.688 98.6018 153.688 99.0447C153.688 99.4875 153.33 99.8449 152.886 99.8449Z" fill="#6A2EA0"/>
<path d="M146.369 119.447H133.499C127.169 119.447 127.094 113.258 127.094 113.194V98.4685C127.094 98.0257 127.452 97.6682 127.896 97.6682C128.34 97.6682 128.698 98.0257 128.698 98.4685V113.194C128.698 113.204 128.714 114.426 129.334 115.6C130.12 117.088 131.521 117.846 133.499 117.846H146.369C146.812 117.846 147.171 118.203 147.171 118.646C147.171 119.089 146.807 119.447 146.369 119.447Z" fill="#6A2EA0"/>
<path d="M94.1105 154.792C93.6667 154.792 93.3085 154.435 93.3085 153.992V124.211L82.9251 106.669C82.7006 106.29 82.8289 105.799 83.2085 105.575C83.5881 105.351 84.08 105.479 84.3046 105.858L94.7948 123.587C94.8697 123.709 94.9071 123.848 94.9071 123.992V153.992C94.9125 154.435 94.5542 154.792 94.1105 154.792Z" fill="#6A2EA0"/>
<path d="M94.1086 191.728C93.6649 191.728 93.3066 191.37 93.3066 190.928V172.724C93.3066 172.281 93.6649 171.924 94.1086 171.924C94.5524 171.924 94.9107 172.281 94.9107 172.724V190.928C94.9107 191.365 94.5524 191.728 94.1086 191.728Z" fill="#6A2EA0"/>
<path d="M36.4622 143.828C36.0184 143.828 35.6602 143.471 35.6602 143.028C35.6602 142.671 35.6976 134.198 39.0018 124.419C43.3968 111.396 51.5506 102.422 62.5755 98.4578C62.9925 98.3084 63.4523 98.5218 63.602 98.938C63.7518 99.3541 63.5379 99.8129 63.1208 99.9623C37.5796 109.134 37.2695 142.687 37.2695 143.023C37.2642 143.471 36.9059 143.828 36.4622 143.828Z" fill="#6A2EA0"/>
<path d="M61.4894 213.154C59.5272 213.154 57.5649 212.429 56.0411 210.977C55.7203 210.673 55.7096 210.167 56.0144 209.846C56.3192 209.526 56.8271 209.516 57.1479 209.82C58.3616 210.977 59.9549 211.596 61.6338 211.559C63.3127 211.522 64.8739 210.833 66.0341 209.622C69.0497 206.475 74.0542 206.362 77.198 209.361C78.4118 210.519 80.0104 211.132 81.6839 211.1C83.3628 211.063 84.924 210.375 86.0843 209.163C87.5546 207.627 89.5169 206.768 91.6235 206.72C93.7354 206.677 95.7297 207.446 97.2535 208.902L97.5476 209.185C98.7613 210.343 100.355 210.972 102.033 210.924C103.712 210.887 105.274 210.199 106.434 208.987L107.284 208.096C108.738 206.576 110.701 205.712 112.812 205.669C114.919 205.626 116.919 206.395 118.443 207.851L118.886 208.278C120.1 209.436 121.688 210.049 123.372 210.017C125.051 209.98 126.612 209.292 127.773 208.08C128.077 207.76 128.585 207.75 128.906 208.054C129.227 208.358 129.238 208.865 128.933 209.185C127.478 210.705 125.516 211.57 123.404 211.612C121.292 211.655 119.298 210.887 117.774 209.43L117.33 209.003C116.117 207.846 114.529 207.232 112.845 207.264C111.166 207.301 109.604 207.99 108.444 209.201L107.594 210.092C106.14 211.612 104.178 212.477 102.066 212.519C99.9483 212.562 97.9593 211.794 96.4355 210.337L96.1414 210.054C94.9277 208.897 93.3397 208.273 91.6555 208.315C89.9767 208.353 88.4154 209.041 87.2552 210.252C85.7849 211.788 83.8226 212.647 81.716 212.695C79.6041 212.743 77.6097 211.97 76.0859 210.513C73.5783 208.123 69.595 208.214 67.1997 210.711C65.6545 212.343 63.5746 213.154 61.4894 213.154Z" fill="#6A2EA0"/>
<path d="M212.941 114.138C212.732 114.138 212.534 114.058 212.385 113.914C212.224 113.765 212.139 113.557 212.139 113.338V92.8186C212.139 92.3758 212.497 92.0183 212.941 92.0183C213.384 92.0183 213.743 92.3758 213.743 92.8186V112.473C215.999 112.255 222.26 111.364 225.591 108.131C225.906 107.821 226.414 107.827 226.724 108.147C227.035 108.461 227.029 108.968 226.708 109.278C222.18 113.679 213.352 114.122 212.978 114.143C212.962 114.138 212.951 114.138 212.941 114.138Z" fill="#6A2EA0"/>
<path d="M227.569 148.193C227.457 148.193 227.339 148.171 227.232 148.118C219.223 144.415 213.347 147.136 213.288 147.168C212.887 147.36 212.411 147.195 212.219 146.795C212.026 146.4 212.192 145.92 212.588 145.728C212.85 145.6 219.17 142.628 227.906 146.667C228.307 146.854 228.484 147.328 228.296 147.729C228.157 148.022 227.869 148.193 227.569 148.193Z" fill="#6A2EA0"/>
<path d="M123.869 243.928H87.634C87.1903 243.928 86.832 243.57 86.832 243.127C86.832 242.684 87.1903 242.327 87.634 242.327H123.869C124.312 242.327 124.671 242.684 124.671 243.127C124.671 243.57 124.312 243.928 123.869 243.928Z" fill="#6A2EA0"/>
<path d="M159.873 243.928H131.718C131.274 243.928 130.916 243.57 130.916 243.127C130.916 242.685 131.274 242.327 131.718 242.327H159.873C162.028 242.327 163.782 240.577 163.782 238.427C163.782 236.277 162.028 234.527 159.873 234.527H87.634C87.1903 234.527 86.832 234.17 86.832 233.727C86.832 233.284 87.1903 232.927 87.634 232.927H159.873C162.91 232.927 165.386 235.391 165.386 238.427C165.386 241.463 162.916 243.928 159.873 243.928Z" fill="#6A2EA0"/>
<path d="M88.1648 243.928C85.1279 243.928 82.6523 241.463 82.6523 238.427C82.6523 235.391 85.1225 232.927 88.1648 232.927C91.2017 232.927 93.6772 235.391 93.6772 238.427C93.6772 241.463 91.2071 243.928 88.1648 243.928ZM88.1648 234.532C86.0101 234.532 84.2564 236.282 84.2564 238.432C84.2564 240.583 86.0101 242.332 88.1648 242.332C90.3195 242.332 92.0732 240.583 92.0732 238.432C92.0732 236.282 90.3195 234.532 88.1648 234.532Z" fill="#6A2EA0"/>
<path d="M131.719 256.572C131.543 256.572 131.361 256.513 131.217 256.396L127.795 253.659L124.373 256.396C124.132 256.588 123.801 256.625 123.523 256.492C123.245 256.359 123.068 256.076 123.068 255.772V233.727C123.068 233.284 123.427 232.927 123.87 232.927H131.719C132.163 232.927 132.521 233.284 132.521 233.727V255.772C132.521 256.081 132.345 256.359 132.067 256.492C131.955 256.551 131.837 256.572 131.719 256.572ZM127.795 251.834C127.971 251.834 128.148 251.893 128.297 252.011L130.917 254.107V234.532H124.672V254.107L127.292 252.011C127.442 251.893 127.618 251.834 127.795 251.834Z" fill="#6A2EA0"/>
<path d="M249.02 218.879C248.897 218.879 248.769 218.852 248.651 218.788C248.256 218.585 248.106 218.1 248.309 217.71L261.286 192.731C261.489 192.342 261.975 192.187 262.366 192.39C262.761 192.592 262.911 193.078 262.708 193.467L249.731 218.447C249.592 218.724 249.309 218.879 249.02 218.879Z" fill="#6A2EA0"/>
<path d="M178.589 241.815C180.464 241.815 181.984 240.298 181.984 238.427C181.984 236.556 180.464 235.039 178.589 235.039C176.713 235.039 175.193 236.556 175.193 238.427C175.193 240.298 176.713 241.815 178.589 241.815Z" fill="#0061FF"/>
<defs>
<linearGradient id="paint0_linear_6694_76389" x1="235.247" y1="54.5293" x2="70.3598" y2="219.772" gradientUnits="userSpaceOnUse">
<stop stop-color="#FF4C84"/>
<stop offset="0.6233" stop-color="#8D78D3"/>
<stop offset="1" stop-color="#4C90FF"/>
</linearGradient>
</defs>
</svg>
