<svg width="432" height="445" viewBox="0 0 432 445" fill="none" xmlns="http://www.w3.org/2000/svg">
<path d="M102.14 143.908C91.0851 143.908 82.0869 134.918 82.0869 123.873C82.0869 112.828 91.0851 103.838 102.14 103.838C113.195 103.838 122.193 112.828 122.193 123.873C122.193 134.918 113.195 143.908 102.14 143.908ZM102.14 106.192C92.3852 106.192 84.4507 114.119 84.4507 123.865C84.4507 133.611 92.3852 141.539 102.14 141.539C111.894 141.539 119.829 133.611 119.829 123.865C119.829 114.119 111.894 106.192 102.14 106.192Z" fill="#6A2EA0"/>
<path d="M265.415 301.858C265.415 307.109 261.153 311.367 255.897 311.367C250.642 311.367 246.379 307.109 246.379 301.858C246.379 296.607 250.642 292.348 255.897 292.348C261.153 292.348 265.415 296.607 265.415 301.858ZM130.805 342.022H107.537C106.15 342.022 78.6434 341.03 78.6434 341.03C78.6434 341.03 105.985 335.583 108.979 334.441C125.951 331.261 154.584 309.801 154.584 309.801C173.408 318.799 184.81 311.493 184.81 311.493C187.37 313.902 189.498 315.115 191.184 315.674L195.88 332.355H140.465C135.138 332.363 130.805 336.685 130.805 342.022ZM67.6202 334.441C67.6202 323.026 76.8784 313.776 88.3034 313.776C88.8156 313.776 89.3277 313.8 89.832 313.839L153.529 295.764L177.127 297.622L189.458 309.525L171.163 244.586C167.633 232.061 156.2 223.41 143.183 223.41H139.874V245.814C139.874 252.175 134.713 257.34 128.338 257.34C121.972 257.34 116.803 252.183 116.803 245.814V223.41H115.322C102.565 223.41 91.1794 231.384 86.83 243.358L58.9529 320.098C55.7617 328.876 60.5681 338.055 68.6917 341.023C67.9984 338.96 67.6202 336.748 67.6202 334.441ZM359.889 349.879C359.889 349.879 359.889 358.035 359.889 364.852C359.889 371.67 351.245 379.81 351.245 379.81H347.423H335.817H331.996C331.996 379.81 323.352 371.67 323.352 364.852C323.352 358.035 323.352 349.879 323.352 349.879H334.627H348.613H359.889ZM175.008 182.891C164.331 181.411 150.921 163.777 149.274 153C149.502 176.129 117.977 182.891 117.977 182.891C117.977 182.891 117.946 178.325 118.001 175.648C118.009 175.16 107.86 173.767 106.686 180.631C105.843 185.552 109.909 194.44 116.811 194.156L117.323 201.013C100.706 197.211 88.3034 182.363 88.3034 164.603C88.3034 156.054 91.1873 148.174 96.0252 141.876C90.7775 138.034 87.5943 131.54 88.4453 124.376C89.4617 115.787 96.4191 108.907 105.023 107.954C116.401 106.702 126.03 115.567 126.03 126.674C126.03 126.863 126.022 127.044 126.014 127.233C167.554 126.116 180.531 165.556 175.008 182.891Z" fill="url(#paint0_linear_6319_71948)"/>
<path d="M234.016 77.7871C223.978 93.1067 226.484 113.858 240.658 126.273C254.762 138.625 275.532 138.459 289.424 126.698L234.016 77.7871Z" fill="#FF4C84"/>
<path d="M322.588 194.495C324.59 194.495 326.213 192.873 326.213 190.873C326.213 188.873 324.59 187.252 322.588 187.252C320.587 187.252 318.964 188.873 318.964 190.873C318.964 192.873 320.587 194.495 322.588 194.495Z" fill="#0061FF"/>
<path d="M284.767 194.495C286.769 194.495 288.392 192.873 288.392 190.873C288.392 188.873 286.769 187.252 284.767 187.252C282.765 187.252 281.143 188.873 281.143 190.873C281.143 192.873 282.765 194.495 284.767 194.495Z" fill="#0061FF"/>
<path d="M229.202 194.495C231.204 194.495 232.827 192.873 232.827 190.873C232.827 188.873 231.204 187.252 229.202 187.252C227.2 187.252 225.578 188.873 225.578 190.873C225.578 192.873 227.2 194.495 229.202 194.495Z" fill="#0061FF"/>
<path d="M188.797 309.329C188.277 309.329 187.804 308.982 187.662 308.463C187.536 308.006 174.866 262.339 168.957 242.146C163.315 222.859 140.213 224.622 139.977 224.646C139.33 224.701 138.755 224.221 138.7 223.567C138.645 222.914 139.126 222.347 139.78 222.292C140.032 222.269 165.049 220.363 171.226 241.485C177.143 261.693 189.813 307.376 189.939 307.833C190.113 308.463 189.742 309.108 189.112 309.289C189.002 309.313 188.899 309.329 188.797 309.329Z" fill="#6A2EA0"/>
<path d="M128.339 249.523C121.326 249.523 115.622 243.824 115.622 236.817V231.543C115.622 230.89 116.149 230.362 116.803 230.362C117.457 230.362 117.985 230.89 117.985 231.543V236.817C117.985 242.517 122.626 247.162 128.339 247.162C134.051 247.162 138.692 242.525 138.692 236.817V214.743C138.692 214.09 139.22 213.562 139.874 213.562C140.528 213.562 141.056 214.09 141.056 214.743V236.817C141.056 243.824 135.351 249.523 128.339 249.523Z" fill="#6A2EA0"/>
<path d="M78.6436 317.878C78.1314 317.878 77.6508 317.54 77.5089 317.02C77.3277 316.39 77.698 315.737 78.3284 315.564L153.387 294.387C153.529 294.348 153.671 294.332 153.812 294.348L177.529 296.45C177.797 296.473 178.049 296.584 178.238 296.773L193.587 311.36C194.06 311.809 194.076 312.557 193.627 313.029C193.178 313.501 192.429 313.517 191.956 313.068L176.907 298.764L153.812 296.717L78.9666 317.831C78.8563 317.863 78.7539 317.878 78.6436 317.878Z" fill="#6A2EA0"/>
<path d="M119.175 288.138C112.107 288.138 106.363 282.391 106.363 275.337C106.363 274.684 106.891 274.156 107.545 274.156C108.199 274.156 108.727 274.684 108.727 275.337C108.727 281.092 113.415 285.776 119.175 285.776C124.935 285.776 129.623 281.092 129.623 275.337C129.623 274.684 130.151 274.156 130.805 274.156C131.459 274.156 131.987 274.684 131.987 275.337C131.987 282.391 126.243 288.138 119.175 288.138Z" fill="#6A2EA0"/>
<path d="M163.733 297.308C163.165 297.308 162.661 296.899 162.567 296.316L160.66 284.634C160.589 284.185 160.778 283.736 161.156 283.477C163.977 281.524 165.655 278.312 165.655 274.888C165.655 274.234 166.183 273.707 166.837 273.707C167.491 273.707 168.019 274.234 168.019 274.888C168.019 278.832 166.199 282.548 163.11 284.964L164.899 295.939C165.001 296.584 164.568 297.19 163.922 297.293C163.859 297.3 163.796 297.308 163.733 297.308Z" fill="#6A2EA0"/>
<path d="M88.3036 314.957C88.1933 314.957 88.0751 314.941 87.9648 314.909C87.3423 314.72 86.9878 314.059 87.1769 313.437L94.3707 289.592C94.5598 288.97 95.2217 288.616 95.8441 288.805C96.4666 288.994 96.8212 289.655 96.6321 290.277L89.4382 314.122C89.2807 314.626 88.8079 314.957 88.3036 314.957Z" fill="#6A2EA0"/>
<path d="M184.4 343.203H41.2879C40.6339 343.203 40.106 342.676 40.106 342.023C40.106 341.369 40.6339 340.842 41.2879 340.842H184.408C185.062 340.842 185.59 341.369 185.59 342.023C185.59 342.676 185.054 343.203 184.4 343.203Z" fill="#6A2EA0"/>
<path d="M302.165 343.203H184.471C184.101 343.203 183.746 343.03 183.526 342.731C183.305 342.431 183.234 342.046 183.337 341.691L205.517 265.448C205.667 264.944 206.124 264.598 206.652 264.598H324.345C324.716 264.598 325.07 264.771 325.291 265.07C325.511 265.369 325.582 265.755 325.48 266.109L303.3 342.353C303.15 342.857 302.693 343.203 302.165 343.203ZM186.047 340.841H301.275L322.769 266.959H207.542L186.047 340.841Z" fill="#6A2EA0"/>
<path d="M172.353 343.204C171.785 343.204 171.281 342.795 171.187 342.212L168.563 326.105C168.46 325.46 168.894 324.854 169.54 324.751C170.186 324.641 170.793 325.082 170.895 325.727L173.519 341.834C173.621 342.48 173.188 343.086 172.542 343.188C172.479 343.196 172.416 343.204 172.353 343.204Z" fill="#6A2EA0"/>
<path d="M265.171 131.248C246.812 131.248 231.873 116.322 231.873 97.9794C231.873 79.6369 246.812 64.7109 265.171 64.7109C283.53 64.7109 298.469 79.6369 298.469 97.9794C298.469 98.6329 297.941 99.1603 297.287 99.1603C296.633 99.1603 296.105 98.6329 296.105 97.9794C296.105 80.9358 282.23 67.0726 265.171 67.0726C248.112 67.0726 234.237 80.9358 234.237 97.9794C234.237 115.023 248.112 128.886 265.171 128.886C274.098 128.886 282.584 125.037 288.462 118.322C288.896 117.833 289.637 117.778 290.133 118.211C290.621 118.644 290.677 119.384 290.243 119.88C283.908 127.107 274.776 131.248 265.171 131.248Z" fill="#6A2EA0"/>
<path d="M341.617 356.776H321.753C321.099 356.776 320.571 356.248 320.571 355.595C320.571 354.942 321.099 354.414 321.753 354.414H341.617C342.271 354.414 342.799 354.942 342.799 355.595C342.799 356.248 342.271 356.776 341.617 356.776Z" fill="#6A2EA0"/>
<path d="M377.578 380.991H297.287C296.633 380.991 296.105 380.463 296.105 379.81C296.105 379.156 296.633 378.629 297.287 378.629H377.578C378.232 378.629 378.76 379.156 378.76 379.81C378.76 380.463 378.232 380.991 377.578 380.991Z" fill="#6A2EA0"/>
<path d="M227.942 380.991H153.876C153.222 380.991 152.694 380.463 152.694 379.81C152.694 379.156 153.222 378.629 153.876 378.629H227.942C228.596 378.629 229.123 379.156 229.123 379.81C229.123 380.463 228.596 380.991 227.942 380.991Z" fill="#6A2EA0"/>
<path d="M363.868 370.568C359.408 370.568 355.784 366.947 355.784 362.491C355.784 358.035 359.408 354.414 363.868 354.414C368.328 354.414 371.952 358.035 371.952 362.491C371.952 366.939 368.328 370.568 363.868 370.568ZM363.868 356.776C360.716 356.776 358.147 359.342 358.147 362.491C358.147 365.64 360.716 368.206 363.868 368.206C367.02 368.206 369.588 365.64 369.588 362.491C369.588 359.342 367.02 356.776 363.868 356.776Z" fill="#6A2EA0"/>
<path d="M278.889 111.812C278.613 111.812 278.338 111.717 278.117 111.528L263.414 98.8697C263.154 98.6493 263.004 98.3186 263.004 97.9722V58.6105C263.004 57.9571 263.532 57.4297 264.186 57.4297C264.84 57.4297 265.368 57.9571 265.368 58.6105V97.4291L279.661 109.734C280.158 110.159 280.213 110.906 279.787 111.402C279.551 111.678 279.22 111.812 278.889 111.812Z" fill="#6A2EA0"/>
<path d="M342.318 207.067H303.457C302.803 207.067 302.275 206.54 302.275 205.886C302.275 205.233 302.803 204.705 303.457 204.705H342.318C349.969 204.705 356.194 198.486 356.194 190.842C356.194 183.198 349.969 176.979 342.318 176.979H268.441C260.791 176.979 254.566 183.198 254.566 190.842C254.566 198.486 260.791 204.705 268.441 204.705H284.303C284.957 204.705 285.485 205.233 285.485 205.886C285.485 206.54 284.957 207.067 284.303 207.067H268.441C259.483 207.067 252.202 199.785 252.202 190.842C252.202 181.899 259.491 174.617 268.441 174.617H342.318C351.277 174.617 358.558 181.899 358.558 190.842C358.558 199.785 351.269 207.067 342.318 207.067Z" fill="#6A2EA0"/>
<path d="M283.546 275.493C283.436 275.493 283.326 275.477 283.215 275.446C282.585 275.265 282.23 274.611 282.412 273.981L290.196 247.223C290.378 246.594 291.032 246.239 291.662 246.42C292.292 246.601 292.647 247.255 292.466 247.885L284.681 274.643C284.531 275.162 284.058 275.493 283.546 275.493Z" fill="#6A2EA0"/>
<path d="M296.83 229.841C296.72 229.841 296.61 229.826 296.499 229.794C295.869 229.613 295.515 228.96 295.696 228.33L302.322 205.555C302.504 204.926 303.157 204.571 303.788 204.752C304.418 204.933 304.773 205.587 304.592 206.217L297.965 228.991C297.815 229.503 297.343 229.841 296.83 229.841Z" fill="#6A2EA0"/>
<path d="M341.498 341.629C340.844 341.629 340.316 341.102 340.316 340.449V322.437C340.316 312.62 348.314 304.629 358.14 304.629H374.749C380.178 304.629 384.598 300.213 384.598 294.789C384.598 289.365 380.178 284.949 374.749 284.949H363.505C351.584 284.949 341.884 275.258 341.884 263.347V248.342C341.884 238.14 333.58 229.842 323.368 229.842H321.004C320.35 229.842 319.822 229.315 319.822 228.661C319.822 228.008 320.35 227.48 321.004 227.48H323.368C334.88 227.48 344.248 236.841 344.248 248.342V263.347C344.248 273.959 352.884 282.587 363.505 282.587H374.749C381.486 282.587 386.962 288.058 386.962 294.789C386.962 301.52 381.486 306.991 374.749 306.991H358.14C349.614 306.991 342.68 313.919 342.68 322.437V340.449C342.68 341.102 342.144 341.629 341.498 341.629Z" fill="#6A2EA0"/>
<path d="M265.763 229.842H227.942C227.288 229.842 226.76 229.315 226.76 228.661C226.76 228.008 227.288 227.48 227.942 227.48H265.763C266.416 227.48 266.944 228.008 266.944 228.661C266.944 229.315 266.416 229.842 265.763 229.842Z" fill="#6A2EA0"/>
<path d="M114.266 202.636C95.4346 202.636 80.1172 187.332 80.1172 168.517C80.1172 149.702 95.4346 134.398 114.266 134.398C114.92 134.398 115.448 134.926 115.448 135.579C115.448 136.233 114.92 136.76 114.266 136.76C96.7426 136.76 82.481 151.001 82.481 168.517C82.481 186.033 96.7347 200.274 114.266 200.274C114.968 200.274 115.669 200.251 116.362 200.203C117.016 200.164 117.576 200.652 117.615 201.305C117.654 201.959 117.166 202.518 116.512 202.557C115.779 202.612 115.023 202.636 114.266 202.636Z" fill="#6A2EA0"/>
<path d="M133.712 215.514C132.609 215.514 131.955 215.443 131.916 215.443C131.27 215.372 130.805 214.782 130.876 214.136C130.947 213.491 131.538 213.026 132.184 213.097C133.011 213.192 152.497 215.128 158.761 194.109C159.62 191.228 160.266 188.252 160.691 185.253C160.786 184.607 161.385 184.158 162.023 184.245C162.669 184.34 163.118 184.93 163.031 185.575C162.59 188.685 161.92 191.787 161.03 194.77C155.341 213.861 139.141 215.514 133.712 215.514Z" fill="#6A2EA0"/>
<path d="M128.339 249.625C121.326 249.625 115.622 243.925 115.622 236.919V231.644C115.622 230.991 116.149 230.464 116.803 230.464C117.457 230.464 117.985 230.991 117.985 231.644V236.919C117.985 242.619 122.626 247.263 128.339 247.263C134.051 247.263 138.692 242.626 138.692 236.919V214.845C138.692 214.192 139.22 213.664 139.874 213.664C140.528 213.664 141.056 214.192 141.056 214.845V236.919C141.056 243.925 135.351 249.625 128.339 249.625Z" fill="#6A2EA0"/>
<path d="M147.635 193.031C147.092 193.031 146.524 192.944 145.941 192.755C144.365 192.26 143.097 190.661 142.955 190.48C142.553 189.961 142.648 189.221 143.168 188.827C143.688 188.426 144.428 188.52 144.822 189.04C145.177 189.496 145.988 190.299 146.65 190.512C147.541 190.795 148.305 190.709 148.88 190.276C149.44 189.843 149.771 189.079 149.731 188.276C149.55 184.198 148.344 176.389 148.337 176.31C148.234 175.665 148.675 175.066 149.321 174.964C149.968 174.862 150.566 175.302 150.669 175.948C150.716 176.271 151.906 183.962 152.095 188.166C152.166 189.748 151.504 191.236 150.322 192.141C149.55 192.732 148.628 193.031 147.635 193.031Z" fill="#6A2EA0"/>
<path d="M141.726 205.65C141.71 205.65 141.694 205.65 141.678 205.65C136.297 205.445 133.547 201.068 132.846 198.785C132.656 198.163 133.003 197.502 133.626 197.313C134.248 197.124 134.91 197.471 135.099 198.093C135.162 198.297 136.738 203.107 141.765 203.296C142.419 203.32 142.923 203.871 142.9 204.524C142.884 205.154 142.364 205.65 141.726 205.65Z" fill="#6A2EA0"/>
<path d="M73.1203 341.74C68.1327 341.74 63.4208 339.402 60.4109 335.411C57.2355 331.191 56.3688 325.901 58.0392 320.894C66.8326 294.467 82.5125 248.445 88.7293 237.148C96.3722 223.261 111.185 222.301 115.629 222.348V194.448C115.629 193.795 116.157 193.268 116.811 193.268C117.465 193.268 117.993 193.795 117.993 194.448V223.576C117.993 223.907 117.851 224.222 117.607 224.45C117.363 224.67 117.032 224.781 116.701 224.749C116.528 224.733 99.0591 223.285 90.8015 238.289C84.6714 249.421 69.0545 295.285 60.2848 321.642C58.8666 325.909 59.5993 330.412 62.3019 333.994C65.0124 337.599 69.1649 339.559 73.6797 339.37C93.5672 338.559 123.627 332.584 153.86 308.739C154.214 308.456 154.703 308.408 155.105 308.605C155.286 308.692 173.306 317.281 182.95 310.636C183.486 310.266 184.227 310.4 184.597 310.935C184.968 311.471 184.834 312.211 184.298 312.581C174.527 319.312 158.304 312.644 154.75 311.046C124.21 334.907 93.8902 340.913 73.7743 341.732C73.5615 341.732 73.3409 341.74 73.1203 341.74Z" fill="#6A2EA0"/>
<path d="M133.807 186.591C128.031 186.591 123.327 181.891 123.327 176.121C123.327 170.35 128.031 165.65 133.807 165.65C139.582 165.65 144.286 170.35 144.286 176.121C144.278 181.899 139.582 186.591 133.807 186.591ZM133.807 168.02C129.331 168.02 125.691 171.657 125.691 176.128C125.691 180.6 129.331 184.237 133.807 184.237C138.282 184.237 141.922 180.6 141.922 176.128C141.922 171.657 138.274 168.02 133.807 168.02Z" fill="#6A2EA0"/>
<path d="M163.37 186.591C157.595 186.591 152.891 181.891 152.891 176.121C152.891 170.35 157.595 165.65 163.37 165.65C169.146 165.65 173.85 170.35 173.85 176.121C173.85 181.899 169.154 186.591 163.37 186.591ZM163.37 168.02C158.895 168.02 155.254 171.657 155.254 176.128C155.254 180.6 158.895 184.237 163.37 184.237C167.846 184.237 171.486 180.6 171.486 176.128C171.486 171.657 167.846 168.02 163.37 168.02Z" fill="#6A2EA0"/>
<path d="M154.081 177.309H143.105C142.451 177.309 141.923 176.782 141.923 176.128C141.923 175.475 142.451 174.947 143.105 174.947H154.081C154.735 174.947 155.263 175.475 155.263 176.128C155.263 176.782 154.735 177.309 154.081 177.309Z" fill="#6A2EA0"/>
<path d="M106.111 181.6C105.457 181.6 104.929 181.073 104.929 180.419C104.929 176.782 107.892 173.83 111.524 173.83H124.509C125.163 173.83 125.691 174.358 125.691 175.011C125.691 175.664 125.163 176.192 124.509 176.192H111.524C109.192 176.192 107.293 178.089 107.293 180.419C107.293 181.073 106.765 181.6 106.111 181.6Z" fill="#6A2EA0"/>
<defs>
<linearGradient id="paint0_linear_6319_71948" x1="40.2847" y1="166.849" x2="302.11" y2="428.907" gradientUnits="userSpaceOnUse">
<stop stop-color="#FF4C84"/>
<stop offset="0.3529" stop-color="#B569B7"/>
<stop offset="0.6558" stop-color="#7D7EDE"/>
<stop offset="0.8796" stop-color="#5A8BF6"/>
<stop offset="1" stop-color="#4C90FF"/>
</linearGradient>
</defs>
</svg>
