<svg width="293" height="302" viewBox="0 0 293 302" fill="none" xmlns="http://www.w3.org/2000/svg">
<path d="M105.813 193.592C105.813 198.755 109.554 203.04 114.477 203.887C115.781 196.817 116.058 187.246 116.116 183.142C110.411 183.222 105.813 187.869 105.813 193.592ZM61.8318 189.849C64.3757 191.728 66.0309 194.752 66.0309 198.159C66.0309 203.86 61.4114 208.481 55.7115 208.481C52.6247 208.481 49.8573 207.123 47.9626 204.978C49.7615 201.539 61.4273 190.717 61.8318 189.849ZM167.399 154.349L175.537 179.581C174.057 180.661 173.088 182.402 173.088 184.377C173.088 187.656 175.744 190.318 179.022 190.318C179.065 190.318 179.102 190.312 179.14 190.312L190.715 224.706L182.024 228.698L154.477 167.092L167.399 154.349ZM111.47 219.702L114.754 202.087L133.328 179.261L136.915 150.186C136.915 150.186 131.247 140.269 137.782 129.691H159.448L160.321 132.406L164.712 146.018L143.732 167.007L148.964 172.543L151.827 169.722L150.481 178.452C150.433 178.452 150.385 178.447 150.337 178.447C147.059 178.447 144.397 181.103 144.397 184.388C144.397 185.623 144.775 186.767 145.414 187.715L111.47 219.702ZM166.926 57.5134C166.612 60.1058 164.318 62.4534 162.359 62.826C160.401 63.1986 159.927 64.5986 159.56 65.807C159.193 67.0207 155.744 67.8564 154.903 65.807C154.062 63.7575 152.295 65.9028 151.178 65.9028C150.06 65.9028 146.888 66.1264 148.66 69.9325C150.433 73.7333 148.543 77.1402 148.543 77.1402L141.289 69.9325C141.289 69.9325 139.789 67.207 141.289 64.226C142.79 61.245 142.322 60.1271 142.322 58.6313C142.322 57.1354 143.163 55.4639 144.93 55.1818C146.697 54.8997 148.655 53.0046 149.496 51.9932C150.337 50.9871 152.088 51.1361 153.775 51.9932C155.462 52.8502 157.138 52.0677 158.629 51.9932C160.119 51.9186 161.423 53.5955 161.795 54.3407C162.168 55.086 164.217 55.3681 165.058 55.3681C165.898 55.3681 167.064 56.3369 166.926 57.5134ZM100.619 71.5827C103.732 68.08 100.965 54.4312 100.965 54.4312C100.965 54.4312 100.23 52.2327 98.0587 52.3977C95.4988 52.632 91.997 56.5658 91.055 61.2822C89.8628 67.2336 86.0523 79.8976 76.2332 79.8976C66.414 79.8976 56.8398 75.0801 56.8398 75.0801C56.8398 75.0801 69.3731 61.1598 77.2816 51.3437C77.5264 51.0403 77.7766 50.7582 78.032 50.5027C78.1863 50.3483 78.3407 50.2099 78.495 50.0715C87.9363 41.2722 102.29 42.3475 105.44 53.5848C108.697 65.1895 113.354 69.9325 117.181 75.0854C106.409 83.7144 94.2428 80.9729 94.2428 80.9729L94.03 71.7052C94.03 71.7052 99.3254 72.8816 100.619 71.5827ZM82.7686 153.779C84.5887 152.166 86.9836 151.181 89.6074 151.181C95.3073 151.181 99.9268 155.802 99.9268 161.503C99.9268 166.427 96.4781 170.542 91.8639 171.575C86.345 163.93 83.5935 156.323 82.7686 153.779ZM241.923 99.5564V80.249C241.923 78.9341 242.988 77.8695 244.302 77.8695H244.84C246.154 77.8695 247.219 78.9341 247.219 80.249V99.5564C247.219 100.871 246.154 101.936 244.84 101.936H244.302C242.988 101.936 241.923 100.871 241.923 99.5564Z" fill="url(#paint0_linear_6694_75943)"/>
<path d="M84.5407 80.3393C84.9452 80.3393 85.2911 80.0359 85.3337 79.626L86.6163 67.7019C86.6642 67.2654 86.3449 66.8715 85.9085 66.8236C85.4721 66.7757 85.0783 67.0951 85.0304 67.5316L83.7478 79.4557C83.6999 79.8922 84.0192 80.2861 84.4556 80.334C84.4875 80.334 84.5141 80.3393 84.5407 80.3393Z" fill="#6A2EA0"/>
<path d="M96.3072 103.176C96.6584 103.176 96.9777 102.947 97.0735 102.591C97.1161 102.442 101.108 87.5152 87.2917 80.1318C86.9032 79.9242 86.4189 80.0733 86.2113 80.4619C86.0037 80.8505 86.1527 81.3349 86.5413 81.5425C99.213 88.3083 95.6951 101.6 95.5408 102.159C95.4237 102.585 95.6738 103.022 96.0943 103.144C96.1635 103.166 96.2327 103.176 96.3072 103.176Z" fill="#6A2EA0"/>
<path d="M97.7939 73.1689C98.7359 73.1689 99.6459 73.0146 100.434 72.626C101.737 71.9819 102.552 70.8214 102.85 69.1659C103.611 64.9765 102.419 57.4334 101.28 51.8387C101.195 51.4075 100.769 51.1254 100.338 51.2159C99.9067 51.3011 99.6246 51.7269 99.7151 52.1581C101.28 59.8662 101.839 65.8069 101.28 68.8784C101.072 70.0229 100.567 70.7788 99.7311 71.194C97.3894 72.3492 92.9402 70.5818 91.4234 69.7993C91.0296 69.597 90.5506 69.7514 90.3484 70.1453C90.1462 70.5393 90.3005 71.0184 90.6943 71.2206C90.8859 71.3218 94.5208 73.1689 97.7939 73.1689Z" fill="#6A2EA0"/>
<path d="M94.2447 82.9638C94.6864 82.9638 95.043 82.6071 95.043 82.1653V72.0192C95.043 71.5774 94.6864 71.2207 94.2447 71.2207C93.8029 71.2207 93.4463 71.5774 93.4463 72.0192V82.1653C93.4463 82.6071 93.8082 82.9638 94.2447 82.9638Z" fill="#6A2EA0"/>
<path d="M75.2973 125.433C78.118 125.433 82.2905 123.83 87.8999 120.599C93.7221 117.246 99.0122 113.274 99.0655 113.237C99.2677 113.088 99.3848 112.849 99.3848 112.598V101.446C99.3848 101.004 99.0282 100.648 98.5865 100.648C98.1447 100.648 97.7882 101.004 97.7882 101.446V112.199C89.853 118.119 76.4575 126.162 73.2909 123.202C62.6522 114.392 76.7449 84.3533 76.8886 84.0498C78.7247 80.1373 82.2692 79.4506 84.7865 80.4673C87.9318 81.7396 90.1351 85.8438 87.9691 92.1412C87.8254 92.5564 88.0489 93.0142 88.464 93.1579C88.8791 93.3016 89.3368 93.0781 89.4805 92.6629C91.9819 85.3753 89.225 80.5472 85.3825 78.9874C82.0935 77.6513 77.6231 78.7266 75.4464 83.3685C74.8396 84.646 60.6778 114.834 72.2372 124.4C72.9769 125.087 73.9934 125.433 75.2973 125.433Z" fill="#6A2EA0"/>
<path d="M81.1094 111.023C81.2318 111.023 81.3595 110.996 81.4766 110.932L106.171 98.1778H121.823C122.265 98.1778 122.621 97.8211 122.621 97.3793C122.621 96.9375 122.265 96.5808 121.823 96.5808H105.974C105.846 96.5808 105.718 96.6127 105.607 96.6713L80.7369 109.516C80.343 109.719 80.194 110.203 80.3963 110.592C80.54 110.868 80.822 111.023 81.1094 111.023Z" fill="#6A2EA0"/>
<path d="M107.196 98.1777C107.638 98.1777 107.995 97.821 107.995 97.3792V92.1624H114.142V97.3792C114.142 97.821 114.498 98.1777 114.94 98.1777C115.382 98.1777 115.738 97.821 115.738 97.3792V91.3639C115.738 90.9221 115.382 90.5654 114.94 90.5654H107.196C106.755 90.5654 106.398 90.9221 106.398 91.3639V97.3792C106.398 97.821 106.755 98.1777 107.196 98.1777Z" fill="#6A2EA0"/>
<path d="M108.474 109.82H113.669C114.813 109.82 115.744 108.888 115.744 107.743V105.178C115.744 104.736 115.388 104.379 114.946 104.379C114.504 104.379 114.148 104.736 114.148 105.178V107.743C114.148 108.004 113.935 108.223 113.669 108.223H108.474C108.213 108.223 107.995 108.01 107.995 107.743V105.178C107.995 104.736 107.639 104.379 107.197 104.379C106.755 104.379 106.399 104.736 106.399 105.178V107.743C106.399 108.888 107.33 109.82 108.474 109.82Z" fill="#6A2EA0"/>
<path d="M107.196 94.18H112.018C112.46 94.18 112.816 93.8233 112.816 93.3815C112.816 92.9397 112.46 92.583 112.018 92.583H107.196C106.755 92.583 106.398 92.9397 106.398 93.3815C106.398 93.8233 106.755 94.18 107.196 94.18Z" fill="#6A2EA0"/>
<path d="M110.418 92.1623C110.817 92.1623 111.158 91.8695 111.211 91.465L112.275 83.017C112.329 82.5805 112.02 82.1812 111.583 82.1227C111.147 82.0694 110.748 82.3782 110.689 82.8147L109.625 91.2627C109.572 91.6992 109.88 92.0984 110.317 92.157C110.354 92.1623 110.386 92.1623 110.418 92.1623Z" fill="#6A2EA0"/>
<path d="M66.0263 234.112H107.916C108.267 234.112 108.576 233.883 108.677 233.548C108.805 233.138 121.322 192.335 115.319 168.237C109.353 144.282 103.445 131.198 103.387 131.065C103.206 130.665 102.732 130.484 102.328 130.671C101.929 130.852 101.748 131.325 101.934 131.73C101.992 131.858 107.841 144.831 113.77 168.625C119.284 190.765 108.799 227.532 107.32 232.515H67.4526L99.2676 180.778C99.4486 180.486 99.4219 180.113 99.2037 179.847C86.6917 164.803 79.3739 147.396 80.5607 135.504C80.6033 135.068 80.284 134.674 79.8476 134.631C79.4059 134.589 79.0174 134.908 78.9748 135.344C77.7614 147.524 85.0632 165.165 97.6125 180.422L65.3451 232.888C65.1961 233.133 65.1855 233.441 65.3291 233.697C65.4675 233.958 65.7336 234.112 66.0263 234.112Z" fill="#6A2EA0"/>
<path d="M31.5391 225.504H71.2892C71.7309 225.504 72.0875 225.148 72.0875 224.706C72.0875 224.264 71.7309 223.907 71.2892 223.907H33.1996C41.5977 213.421 55.5467 196.439 62.2577 190.749C62.4068 190.627 62.5025 190.451 62.5292 190.259C66.7495 162.871 76.8347 130.256 76.9358 129.926C77.0689 129.505 76.8294 129.058 76.409 128.925C75.9885 128.792 75.5415 129.031 75.4084 129.452C75.3073 129.776 65.2647 162.275 60.9964 189.722C53.8117 195.934 39.1017 213.948 30.9164 224.2C30.7248 224.44 30.6876 224.77 30.8206 225.047C30.9537 225.329 31.2357 225.504 31.5391 225.504Z" fill="#6A2EA0"/>
<path d="M80.4973 245.77H109.848C110.29 245.77 110.646 245.413 110.646 244.971C110.646 244.737 110.503 239.249 97.8471 238.887C95.9258 238.834 94.6219 238.317 93.9833 237.359C92.9774 235.853 93.8077 233.617 93.8183 233.596C93.9726 233.186 93.7704 232.723 93.3606 232.563C92.9508 232.403 92.4878 232.611 92.3281 233.021C92.2802 233.143 91.1892 236.039 92.6528 238.238C93.6001 239.659 95.3297 240.415 97.8098 240.484C105.708 240.708 108.065 242.933 108.768 244.173H81.3861C81.897 240.255 84.4249 233.67 84.4516 233.596C84.6112 233.186 84.4037 232.723 83.9939 232.563C83.5841 232.403 83.1211 232.611 82.9614 233.021C82.839 233.34 79.9172 240.958 79.7096 244.929C79.699 245.147 79.7788 245.36 79.9279 245.52C80.0715 245.685 80.2791 245.77 80.4973 245.77Z" fill="#6A2EA0"/>
<path d="M62.1191 241.644C62.2681 241.644 62.4118 241.602 62.5395 241.522C62.7258 241.405 62.8588 241.213 62.9014 241C62.9493 240.755 63.9552 234.948 52.1084 231.812C50.5118 231.392 49.4953 230.679 49.0855 229.699C48.4149 228.107 49.4101 226.058 49.8731 225.249C50.0913 224.866 49.9583 224.376 49.5751 224.158C49.1919 223.939 48.7023 224.072 48.4841 224.456C47.7709 225.712 46.7065 228.145 47.6166 230.311C48.2286 231.77 49.607 232.792 51.7039 233.351C57.1536 234.793 59.49 236.752 60.4852 238.142C60.9376 238.775 61.1611 239.339 61.2622 239.776L34.8597 232.584C35.5888 230.86 37.0896 228.267 39.1652 225.142C39.41 224.775 39.3089 224.28 38.9417 224.035C38.5745 223.79 38.0795 223.891 37.8347 224.259C36.0625 226.92 33.7953 230.577 33.0396 232.877C32.9704 233.085 32.9917 233.314 33.0928 233.505C33.1939 233.697 33.3748 233.841 33.5877 233.899L61.9062 241.618C61.9807 241.634 62.0499 241.644 62.1191 241.644Z" fill="#6A2EA0"/>
<path d="M81.3368 147.785C81.3741 147.785 81.4166 147.78 81.4539 147.774C81.5337 147.764 89.6178 146.443 89.8201 137.106C89.8307 136.665 89.4795 136.303 89.0377 136.292C88.5907 136.276 88.2341 136.633 88.2235 137.075C88.0532 145.038 81.4965 146.151 81.2144 146.193C80.778 146.262 80.48 146.667 80.5492 147.104C80.613 147.503 80.9483 147.785 81.3368 147.785Z" fill="#6A2EA0"/>
<path d="M102.664 132.199C102.903 132.199 103.138 132.087 103.287 131.901C103.452 131.698 103.499 131.427 103.43 131.177L99.939 119.412C99.8113 118.992 99.3696 118.747 98.9438 118.874C98.5234 119.002 98.2786 119.444 98.4063 119.87L101.573 130.538L70.6839 128.547C70.2315 128.526 69.8643 128.85 69.8377 129.292C69.8111 129.734 70.1411 130.112 70.5828 130.139L102.616 132.204C102.627 132.199 102.643 132.199 102.664 132.199Z" fill="#6A2EA0"/>
<path d="M70.629 130.133C70.9856 130.133 71.3102 129.894 71.4007 129.532L72.9388 123.458C73.0452 123.032 72.7898 122.595 72.3587 122.489C71.9329 122.382 71.4965 122.638 71.3901 123.069L69.852 129.143C69.7456 129.569 70.001 130.005 70.4321 130.112C70.496 130.128 70.5598 130.133 70.629 130.133Z" fill="#6A2EA0"/>
<path d="M91.0977 105.726C91.4437 105.726 91.763 105.503 91.8641 105.151C92.0131 104.635 95.5097 92.4872 90.2303 85.9715C89.9535 85.6308 89.4479 85.5776 89.1073 85.8544C88.7667 86.1312 88.7135 86.6369 88.9902 86.9776C93.7428 92.8385 90.3686 104.582 90.3314 104.704C90.209 105.125 90.4485 105.572 90.8742 105.694C90.9434 105.715 91.0232 105.726 91.0977 105.726Z" fill="#6A2EA0"/>
<path d="M111.806 159.038C111.997 159.038 112.189 158.969 112.343 158.831C112.524 158.666 116.729 154.732 114.674 148.78C112.913 143.675 110.033 140.151 109.911 140.002C109.629 139.662 109.129 139.614 108.788 139.896C108.447 140.178 108.4 140.678 108.682 141.019C108.708 141.051 111.502 144.479 113.163 149.302C114.876 154.269 111.3 157.617 111.263 157.649C110.938 157.947 110.917 158.453 111.21 158.777C111.375 158.953 111.587 159.038 111.806 159.038Z" fill="#6A2EA0"/>
<path d="M107.128 142.478C107.256 142.478 107.383 142.446 107.506 142.382L112.402 139.757C112.753 139.566 112.913 139.145 112.775 138.773L104.653 117.187L103.972 106.886C103.945 106.445 103.568 106.115 103.121 106.141C102.679 106.168 102.349 106.551 102.375 106.993L103.067 117.416C103.073 117.496 103.089 117.57 103.115 117.645L111.029 138.687L106.75 140.982C106.362 141.189 106.218 141.674 106.425 142.062C106.569 142.323 106.846 142.478 107.128 142.478Z" fill="#6A2EA0"/>
<path d="M103.057 99.6893C103.504 99.684 103.861 99.3273 103.855 98.8855C103.754 83.1926 94.7707 81.4306 94.3875 81.3614C93.9564 81.2868 93.5413 81.5743 93.4615 82.0108C93.387 82.442 93.6744 82.8572 94.1055 82.937C94.4461 83.0009 102.168 84.6245 102.259 98.9015C102.259 99.3326 102.615 99.6893 103.057 99.6893Z" fill="#6A2EA0"/>
<path d="M60.3839 104.613C64.4233 104.613 67.707 101.329 67.707 97.2887C67.707 93.2483 64.4233 89.9639 60.3839 89.9639C56.3445 89.9639 53.0608 93.2483 53.0608 97.2887C53.0608 101.329 56.3445 104.613 60.3839 104.613ZM60.3839 91.5608C63.5399 91.5608 66.1104 94.132 66.1104 97.2887C66.1104 100.445 63.5399 103.016 60.3839 103.016C57.228 103.016 54.6575 100.445 54.6575 97.2887C54.6575 94.1267 57.2227 91.5608 60.3839 91.5608Z" fill="#6A2EA0"/>
<path d="M73.3393 139.736C73.6693 139.736 73.978 139.534 74.0897 139.204C74.2388 138.788 74.0206 138.331 73.6054 138.182L68.8795 136.505C63.3765 134.551 58.9859 130.559 56.5111 125.273C54.0683 120.045 53.8182 114.2 55.8086 108.813C58.8156 100.69 66.293 89.0108 77.4905 82.8465C77.879 82.6336 78.0174 82.1491 77.8045 81.7606C77.5916 81.372 77.1073 81.2336 76.7188 81.4465C65.1381 87.8237 57.4106 99.8756 54.3078 108.26C52.1684 114.051 52.4345 120.333 55.0636 125.949C57.7192 131.629 62.4345 135.909 68.342 138.011L73.0679 139.688C73.1584 139.72 73.2489 139.736 73.3393 139.736Z" fill="#6A2EA0"/>
<path d="M77.1072 225.504H109.848C110.29 225.504 110.646 225.148 110.646 224.706C110.646 224.264 110.29 223.907 109.848 223.907H77.1072C76.6655 223.907 76.3089 224.264 76.3089 224.706C76.3089 225.148 76.6655 225.504 77.1072 225.504Z" fill="#6A2EA0"/>
<path d="M141.29 89.5167C141.535 89.5167 141.78 89.4049 141.934 89.1867C142.195 88.83 142.115 88.3296 141.759 88.0688C138.411 85.6254 136.41 81.6916 136.41 77.5501C136.41 74.4307 137.533 71.4124 139.566 69.0542C139.853 68.7188 139.816 68.2184 139.481 67.9256C139.146 67.6382 138.645 67.6755 138.353 68.0108C136.07 70.6618 134.808 74.0474 134.808 77.5501C134.808 82.1973 137.054 86.6156 140.811 89.357C140.96 89.4635 141.125 89.5167 141.29 89.5167Z" fill="#6A2EA0"/>
<path d="M159.412 81.0155C159.827 81.0155 160.253 80.9836 160.695 80.9037C162.393 80.7334 163.787 79.9296 164.835 78.5242C168.896 73.0786 166.416 60.0473 166.31 59.4936C166.224 59.0625 165.804 58.775 165.373 58.8602C164.942 58.9453 164.66 59.3659 164.74 59.7971C164.766 59.9248 167.193 72.69 163.553 77.5661C162.765 78.6201 161.77 79.195 160.509 79.3174C160.487 79.3174 160.466 79.3227 160.445 79.328C156.347 80.0467 153.43 76.1022 153.404 76.0649C153.143 75.7082 152.648 75.6284 152.291 75.8839C151.935 76.1394 151.855 76.6398 152.11 76.9965C152.238 77.1775 155.059 81.0155 159.412 81.0155Z" fill="#6A2EA0"/>
<path d="M150.525 71.737C150.817 71.737 151.099 71.5773 151.238 71.2951C151.435 70.9012 151.275 70.4221 150.881 70.2251C150.86 70.2145 149.008 69.251 148.96 67.5901C148.933 66.6053 149.609 66.3179 149.817 66.254C150.136 66.1582 150.423 66.2167 150.498 66.3339C150.737 66.7065 151.227 66.8129 151.6 66.5787C151.972 66.3445 152.084 65.8494 151.844 65.4768C151.36 64.7209 150.36 64.4175 149.348 64.7316C148.401 65.0243 147.315 65.9559 147.363 67.638C147.438 70.2624 150.056 71.5985 150.163 71.6518C150.28 71.7103 150.402 71.737 150.525 71.737Z" fill="#6A2EA0"/>
<path d="M166.357 73.1743C166.363 73.1743 166.368 73.1743 166.368 73.1743C167.725 73.153 168.332 72.5408 168.603 72.0244C169.551 70.2358 167.635 67.175 167.241 66.5788C166.996 66.2115 166.501 66.1103 166.134 66.3552C165.767 66.6 165.665 67.0951 165.905 67.4624C166.671 68.6282 167.544 70.6031 167.188 71.2792C167.065 71.5134 166.661 71.572 166.341 71.5773C165.9 71.5826 165.548 71.9446 165.554 72.3864C165.564 72.8229 165.921 73.1743 166.357 73.1743Z" fill="#6A2EA0"/>
<path d="M132.96 114.988H133.689C135.909 114.988 137.713 113.184 137.713 110.964V104.927C137.713 104.486 137.356 104.129 136.915 104.129H129.74C129.299 104.129 128.942 104.486 128.942 104.927V110.964C128.942 113.184 130.746 114.988 132.96 114.988ZM136.116 105.726V110.964C136.116 112.3 135.031 113.391 133.689 113.391H132.96C131.624 113.391 130.533 112.305 130.533 110.964V105.726H136.116Z" fill="#6A2EA0"/>
<path d="M136.915 124.059C137.356 124.059 137.713 123.703 137.713 123.261C137.713 122.819 137.356 122.462 136.915 122.462C131.273 122.462 127.245 120.243 125.573 116.208C123.583 111.401 125.44 105.157 130.299 100.291C133.604 96.9853 145.595 85.913 147.351 84.2947C148.357 84.2734 152.104 84.3959 154.525 87.1959C156.963 90.0172 157.436 94.6857 155.936 101.079C155.834 101.51 156.101 101.936 156.532 102.037C156.963 102.138 157.388 101.872 157.49 101.441C159.118 94.5153 158.522 89.3624 155.723 86.1365C152.375 82.2772 147.176 82.6924 146.957 82.7137C146.782 82.7297 146.617 82.8042 146.489 82.9213C146.351 83.0491 132.753 95.5853 129.182 99.1572C123.86 104.48 121.869 111.411 124.105 116.814C126.005 121.419 130.677 124.059 136.915 124.059Z" fill="#6A2EA0"/>
<path d="M135.611 130.49H159.006C159.448 130.49 159.805 130.133 159.805 129.691C159.805 129.249 159.448 128.893 159.006 128.893H136.585L143.993 91.5182C144.078 91.087 143.796 90.6665 143.365 90.5813C142.934 90.4962 142.513 90.7783 142.428 91.2095L134.828 129.537C134.781 129.771 134.844 130.016 134.993 130.197C135.148 130.383 135.377 130.49 135.611 130.49Z" fill="#6A2EA0"/>
<path d="M176.436 147.482C176.569 147.482 176.707 147.45 176.829 147.375C177.213 147.157 177.346 146.667 177.128 146.284C177.096 146.231 174.105 140.992 170.773 135.584C169.842 134.072 168.729 132.028 167.441 129.67C164.131 123.591 160.012 116.021 156.036 112.199C155.717 111.896 155.211 111.901 154.908 112.22C154.605 112.54 154.61 113.045 154.929 113.349C158.729 117.006 162.779 124.453 166.042 130.437C167.34 132.821 168.458 134.876 169.416 136.425C172.732 141.812 175.712 147.029 175.744 147.082C175.893 147.338 176.159 147.482 176.436 147.482Z" fill="#6A2EA0"/>
<path d="M157.644 115.973C157.66 115.973 157.681 115.973 157.697 115.973C158.138 115.941 158.468 115.563 158.442 115.122L157.511 101.207C157.479 100.765 157.101 100.429 156.659 100.461C156.217 100.493 155.887 100.871 155.914 101.313L156.845 115.228C156.877 115.649 157.228 115.973 157.644 115.973Z" fill="#6A2EA0"/>
<path d="M153.797 157.734C154.186 157.734 154.527 157.452 154.585 157.058L157.906 135.552C157.975 135.116 157.677 134.711 157.241 134.642C156.804 134.573 156.395 134.876 156.331 135.307L153.01 156.813C152.941 157.25 153.239 157.654 153.675 157.723C153.718 157.734 153.76 157.734 153.797 157.734Z" fill="#6A2EA0"/>
<path d="M114.43 217.764C114.626 217.764 114.823 217.69 114.978 217.546L150.215 184.281C150.343 184.159 150.428 183.999 150.454 183.829L152.615 170.35C152.684 169.914 152.386 169.504 151.955 169.435C151.519 169.36 151.109 169.664 151.04 170.095L148.927 183.302L113.887 216.38C113.567 216.684 113.551 217.189 113.855 217.509C114.009 217.679 114.222 217.764 114.43 217.764Z" fill="#6A2EA0"/>
<path d="M116.165 201.763C116.399 201.763 116.633 201.656 116.793 201.459L133.956 179.762C134.046 179.645 134.105 179.512 134.121 179.362L137.708 150.282C137.729 150.095 137.687 149.904 137.58 149.744C137.564 149.723 136.122 147.482 135.521 143.947C134.717 139.236 135.707 134.578 138.464 130.106C138.693 129.728 138.581 129.239 138.203 129.01C137.825 128.776 137.335 128.893 137.107 129.271C133.392 135.297 133.344 140.769 133.961 144.293C134.515 147.455 135.664 149.632 136.09 150.361L132.562 178.942L115.537 200.469C115.265 200.815 115.324 201.316 115.67 201.592C115.819 201.709 115.994 201.763 116.165 201.763Z" fill="#6A2EA0"/>
<path d="M189.48 245.908C189.603 245.908 189.725 245.882 189.837 245.823C189.917 245.78 197.974 241.793 203.296 239.92C208.214 238.184 210.316 235.363 211.215 233.297C212.205 231.024 211.987 229.156 211.976 229.076C211.923 228.64 211.524 228.326 211.088 228.384C210.651 228.437 210.337 228.837 210.396 229.273C210.422 229.523 211.013 235.507 202.769 238.413C198.315 239.983 192.019 242.991 189.879 244.029L155.441 167.247C155.26 166.847 154.786 166.666 154.387 166.847C153.982 167.028 153.807 167.502 153.988 167.901L188.767 245.44C188.857 245.637 189.022 245.791 189.225 245.866C189.294 245.892 189.39 245.908 189.48 245.908Z" fill="#6A2EA0"/>
<path d="M164.787 146.789C164.872 146.789 164.952 146.779 165.037 146.747C165.457 146.608 165.681 146.156 165.548 145.741L160.21 129.5C160.071 129.079 159.619 128.855 159.204 128.989C158.783 129.127 158.56 129.579 158.693 129.995L164.031 146.236C164.143 146.577 164.451 146.789 164.787 146.789Z" fill="#6A2EA0"/>
<path d="M192.525 231.168C192.61 231.168 192.69 231.158 192.775 231.126C193.195 230.987 193.424 230.535 193.286 230.12L168.283 154.056C168.145 153.635 167.692 153.412 167.277 153.545C166.857 153.683 166.633 154.136 166.766 154.551L191.769 230.615C191.875 230.955 192.189 231.168 192.525 231.168Z" fill="#6A2EA0"/>
<path d="M198.746 233.239C198.816 233.239 198.885 233.228 198.949 233.213L211.381 229.949C211.807 229.838 212.062 229.401 211.95 228.975C211.839 228.549 211.402 228.294 210.976 228.406L198.741 231.616L189.358 229.236C188.933 229.13 188.496 229.385 188.39 229.811C188.283 230.237 188.539 230.673 188.965 230.78L198.544 233.213C198.613 233.228 198.683 233.239 198.746 233.239Z" fill="#6A2EA0"/>
<path d="M160.258 119.54C160.679 119.54 161.035 119.21 161.057 118.779C162.057 98.513 167.065 84.1189 167.113 83.9752C167.198 83.7357 167.161 83.4642 167.017 83.2566C166.874 83.0436 166.634 82.9159 166.379 82.9106C162.882 82.836 159.668 82.3463 156.836 81.4573C154.5 80.7227 152.355 79.4877 150.45 77.779L139.614 68.0427C139.284 67.75 138.784 67.7766 138.486 68.1013C138.193 68.4313 138.22 68.9317 138.545 69.2298L149.38 78.966C151.45 80.8292 153.797 82.1813 156.352 82.9798C159.034 83.8208 162.031 84.3212 165.266 84.4703C164.106 88.138 160.317 101.286 159.46 118.699C159.439 119.141 159.779 119.513 160.216 119.534C160.232 119.54 160.242 119.54 160.258 119.54Z" fill="#6A2EA0"/>
<path d="M165.186 88.3349C165.548 88.3349 165.878 88.0847 165.963 87.7174C166.064 87.2862 165.793 86.8603 165.362 86.7592L160.737 85.6946C160.311 85.5987 159.88 85.8649 159.779 86.2961C159.678 86.7273 159.949 87.1531 160.38 87.2543L165.005 88.3189C165.069 88.3296 165.128 88.3349 165.186 88.3349Z" fill="#6A2EA0"/>
<path d="M196.511 106.067H266.463C266.905 106.067 267.262 105.71 267.262 105.268C267.262 104.826 266.905 104.47 266.463 104.47H196.511C196.069 104.47 195.713 104.826 195.713 105.268C195.713 105.71 196.069 106.067 196.511 106.067Z" fill="#6A2EA0"/>
<path d="M203.766 105.726H215.346C215.788 105.726 216.145 105.369 216.145 104.928V72.3759C216.145 71.9341 215.788 71.5774 215.346 71.5774H203.766C203.324 71.5774 202.967 71.9341 202.967 72.3759V104.928C202.967 105.369 203.324 105.726 203.766 105.726ZM214.548 104.129H204.564V73.1744H214.548V104.129Z" fill="#6A2EA0"/>
<path d="M215.463 105.726H227.043C227.485 105.726 227.842 105.369 227.842 104.928V67.026C227.842 66.5842 227.485 66.2275 227.043 66.2275H215.463C215.021 66.2275 214.665 66.5842 214.665 67.026V104.928C214.665 105.369 215.021 105.726 215.463 105.726ZM226.245 104.129H216.261V67.8245H226.245V104.129Z" fill="#6A2EA0"/>
<path d="M227.16 105.726H238.741C239.182 105.726 239.539 105.369 239.539 104.927V58.5939C239.539 58.1521 239.182 57.7954 238.741 57.7954H227.16C226.718 57.7954 226.362 58.1521 226.362 58.5939V104.927C226.362 105.369 226.718 105.726 227.16 105.726ZM237.942 104.129H227.958V59.3924H237.942V104.129Z" fill="#6A2EA0"/>
<path d="M238.857 105.726H250.438C250.88 105.726 251.236 105.369 251.236 104.927V75.0854C251.236 74.6435 250.88 74.2869 250.438 74.2869H238.857C238.416 74.2869 238.059 74.6435 238.059 75.0854V104.927C238.059 105.369 238.421 105.726 238.857 105.726ZM249.64 104.129H239.656V75.8838H249.64V104.129Z" fill="#6A2EA0"/>
<path d="M229.907 65.0137H236.235C236.677 65.0137 237.033 64.6571 237.033 64.2152C237.033 63.7734 236.677 63.4167 236.235 63.4167H229.907C229.465 63.4167 229.109 63.7734 229.109 64.2152C229.109 64.6571 229.465 65.0137 229.907 65.0137Z" fill="#6A2EA0"/>
<path d="M229.907 100.791H236.235C236.677 100.791 237.033 100.435 237.033 99.9928C237.033 99.551 236.677 99.1943 236.235 99.1943H229.907C229.465 99.1943 229.109 99.551 229.109 99.9928C229.109 100.435 229.465 100.791 229.907 100.791Z" fill="#6A2EA0"/>
<path d="M219.221 90.7039C219.663 90.7039 220.02 90.3472 220.02 89.9054V72.195C220.02 71.7531 219.663 71.3965 219.221 71.3965C218.78 71.3965 218.423 71.7531 218.423 72.195V89.9054C218.423 90.3472 218.78 90.7039 219.221 90.7039Z" fill="#6A2EA0"/>
<path d="M223.553 96.5007C223.995 96.5007 224.352 96.1441 224.352 95.7022V72.2001C224.352 71.7583 223.995 71.4016 223.553 71.4016C223.112 71.4016 222.755 71.7583 222.755 72.2001V95.7022C222.755 96.1441 223.112 96.5007 223.553 96.5007Z" fill="#6A2EA0"/>
<path d="M203.765 79.4239H209.555C209.997 79.4239 210.354 79.0672 210.354 78.6254C210.354 78.1836 209.997 77.8269 209.555 77.8269H203.765C203.323 77.8269 202.967 78.1836 202.967 78.6254C202.967 79.0672 203.323 79.4239 203.765 79.4239Z" fill="#6A2EA0"/>
<path d="M203.765 99.6895H209.555C209.997 99.6895 210.354 99.3328 210.354 98.891C210.354 98.4492 209.997 98.0925 209.555 98.0925H203.765C203.323 98.0925 202.967 98.4492 202.967 98.891C202.967 99.3328 203.323 99.6895 203.765 99.6895Z" fill="#6A2EA0"/>
<path d="M262.638 105.726C262.829 105.726 263.021 105.657 263.175 105.518C263.5 105.22 263.521 104.714 263.223 104.39L251.025 91.071C250.727 90.7463 250.222 90.725 249.897 91.0231C249.572 91.3212 249.551 91.8269 249.849 92.1516L262.047 105.47C262.207 105.635 262.42 105.726 262.638 105.726Z" fill="#6A2EA0"/>
<path d="M45.3396 245.999H138.278C138.72 245.999 139.076 245.642 139.076 245.2C139.076 244.759 138.72 244.402 138.278 244.402H45.3396C44.8979 244.402 44.5413 244.759 44.5413 245.2C44.5413 245.642 44.8979 245.999 45.3396 245.999Z" fill="#6A2EA0"/>
<path d="M172.865 245.999H219.944C220.386 245.999 220.742 245.642 220.742 245.2C220.742 244.759 220.386 244.402 219.944 244.402H172.865C172.424 244.402 172.067 244.759 172.067 245.2C172.067 245.642 172.424 245.999 172.865 245.999Z" fill="#6A2EA0"/>
<path d="M22.9924 176.03H64.4615C64.9032 176.03 65.2598 175.673 65.2598 175.232C65.2598 174.79 64.9032 174.433 64.4615 174.433H22.9924C22.5506 174.433 22.1941 174.79 22.1941 175.232C22.1941 175.673 22.556 176.03 22.9924 176.03Z" fill="#6A2EA0"/>
<path d="M115.728 176.03H133.823C134.265 176.03 134.621 175.673 134.621 175.232C134.621 174.79 134.265 174.433 133.823 174.433H115.723C115.281 174.433 114.924 174.79 114.924 175.232C114.924 175.673 115.286 176.03 115.728 176.03Z" fill="#6A2EA0"/>
<path d="M151.21 176.03H158.006C158.448 176.03 158.805 175.673 158.805 175.232C158.805 174.79 158.448 174.433 158.006 174.433H151.21C150.768 174.433 150.412 174.79 150.412 175.232C150.412 175.673 150.768 176.03 151.21 176.03Z" fill="#6A2EA0"/>
<path d="M174.707 176.03H193.627C208.576 176.03 220.742 163.866 220.742 148.908C220.742 138.144 229.497 129.382 240.264 129.382H277.262C277.704 129.382 278.061 129.026 278.061 128.584C278.061 128.142 277.704 127.785 277.262 127.785H240.258C228.614 127.785 219.141 137.261 219.141 148.908C219.141 162.983 207.693 174.433 193.622 174.433H174.702C174.26 174.433 173.903 174.79 173.903 175.231C173.903 175.673 174.265 176.03 174.707 176.03Z" fill="#6A2EA0"/>
<path d="M176.628 150.665C177.011 150.665 177.251 150.649 177.304 150.649C177.746 150.622 178.076 150.239 178.049 149.802C178.023 149.361 177.645 149.031 177.203 149.057C177.145 149.062 171.301 149.393 168.991 146.215C167.368 143.984 167.847 139.411 167.852 139.369C167.874 139.156 167.815 138.948 167.682 138.783L147.815 113.897L147.011 95.665C146.99 95.2232 146.623 94.8825 146.181 94.9038C145.739 94.9251 145.399 95.2977 145.42 95.7342L146.234 114.222C146.24 114.392 146.303 114.552 146.41 114.685L166.24 139.523C166.149 140.726 165.984 144.788 167.703 147.151C170.029 150.356 174.845 150.665 176.628 150.665Z" fill="#6A2EA0"/>
<path d="M175.941 146.619C176.143 146.619 176.351 146.539 176.505 146.385L197.186 125.699C197.5 125.385 197.5 124.879 197.186 124.57L191.694 119.077C191.38 118.763 190.874 118.763 190.566 119.077L171.3 138.347C170.986 138.661 170.986 139.167 171.3 139.475C171.614 139.789 172.12 139.789 172.428 139.475L191.13 120.769L195.494 125.134L175.377 145.256C175.063 145.57 175.063 146.076 175.377 146.385C175.531 146.539 175.739 146.619 175.941 146.619Z" fill="#6A2EA0"/>
<path d="M149.226 173.342C149.428 173.342 149.635 173.262 149.79 173.108L172.845 150.047C173.159 149.733 173.159 149.228 172.845 148.919C172.531 148.605 172.025 148.605 171.716 148.919L149.226 171.415L144.861 167.05L167.751 144.155C168.065 143.841 168.065 143.335 167.751 143.026C167.437 142.712 166.932 142.712 166.623 143.026L143.169 166.486C142.855 166.8 142.855 167.305 143.169 167.614L148.661 173.108C148.821 173.262 149.023 173.342 149.226 173.342Z" fill="#6A2EA0"/>
<path d="M98.5923 111.023C98.7573 111.023 98.9276 110.969 99.0713 110.863L106.448 105.343H115.671C120.051 105.343 121.637 100.158 121.7 99.9342C121.823 99.5137 121.583 99.0665 121.163 98.9441C120.742 98.8217 120.295 99.0612 120.173 99.4818C120.162 99.5243 118.858 103.746 115.671 103.746H106.181C106.011 103.746 105.841 103.799 105.702 103.905L98.1133 109.58C97.762 109.846 97.6875 110.346 97.9536 110.698C98.108 110.911 98.3475 111.023 98.5923 111.023Z" fill="#6A2EA0"/>
<defs>
<linearGradient id="paint0_linear_6694_75943" x1="210.431" y1="204.992" x2="66.9726" y2="61.5665" gradientUnits="userSpaceOnUse">
<stop stop-color="#FF4C84"/>
<stop offset="0.3015" stop-color="#C064AF"/>
<stop offset="0.6316" stop-color="#827CDA"/>
<stop offset="0.8738" stop-color="#5B8BF5"/>
<stop offset="1" stop-color="#4C90FF"/>
</linearGradient>
</defs>
</svg>
