<svg width="433" height="445" viewBox="0 0 433 445" fill="none" xmlns="http://www.w3.org/2000/svg">
<path d="M154.733 347.124H199.291V375.157H182.793C167.298 375.149 154.733 362.604 154.733 347.124ZM268.095 243.716V296.974C268.095 296.974 342.554 285.463 342.554 242.706C342.554 242.706 342.712 217.087 342.712 210.98C339.3 224.354 326.119 225.711 320.291 225.467C320.291 231.005 312.274 237.617 304.59 237.728C296.906 237.83 294.134 234.067 280.179 228.788C263.167 222.35 255.451 236.702 256.193 243.716H268.095ZM102.995 69.1012C87.5713 69.1012 75.0693 81.5912 75.0693 97.0005C75.0693 112.41 87.5713 124.9 102.995 124.9C118.419 124.9 130.921 112.41 130.921 97.0005C130.921 81.5912 118.427 69.1012 102.995 69.1012ZM230.234 375.149H353.271V297.456C320.204 293.937 243.186 294.678 230.234 375.149ZM196.377 249.942C181.348 249.942 169.162 237.767 169.162 222.752C169.162 222.303 169.177 221.861 169.193 221.419L151.187 229.199L160.214 250.202C160.214 250.202 168.554 253.153 168.672 269.761C168.672 269.761 180.787 279.877 180.787 292.753L199.291 284.76C199.291 284.76 189.372 276.421 188.471 273.422C187.571 270.416 186.979 265.201 191.654 263.307L203.864 272.76L210.292 268.381L202.079 249.342C200.239 249.729 198.335 249.942 196.377 249.942Z" fill="url(#paint0_linear_6319_78296)"/>
<path d="M55.2227 176.477C57.2291 176.477 58.8557 174.852 58.8557 172.848C58.8557 170.843 57.2291 169.218 55.2227 169.218C53.2164 169.218 51.5898 170.843 51.5898 172.848C51.5898 174.852 53.2164 176.477 55.2227 176.477Z" fill="#0061FF"/>
<path d="M225.812 157.446C227.818 157.446 229.445 155.821 229.445 153.817C229.445 151.812 227.818 150.188 225.812 150.188C223.805 150.188 222.179 151.812 222.179 153.817C222.179 155.821 223.805 157.446 225.812 157.446Z" fill="#0061FF"/>
<path d="M112.086 307.476C113.896 307.476 115.364 306.01 115.364 304.202C115.364 302.393 113.896 300.927 112.086 300.927C110.276 300.927 108.809 302.393 108.809 304.202C108.809 306.01 110.276 307.476 112.086 307.476Z" fill="#0061FF"/>
<path d="M266.674 233.081C266.018 233.081 265.489 232.552 265.489 231.897V202.806C265.489 182.379 282.122 165.762 302.569 165.762H306.81C327.257 165.762 343.889 182.379 343.889 202.806C343.889 203.461 343.36 203.99 342.704 203.99C342.049 203.99 341.52 203.461 341.52 202.806C341.52 183.681 325.946 168.129 306.81 168.129H302.569C283.425 168.129 267.859 183.689 267.859 202.806V231.897C267.859 232.552 267.322 233.081 266.674 233.081Z" fill="#6A2EA0"/>
<path d="M253.019 216.63C248.067 216.63 244.039 212.606 244.039 207.659C244.039 202.712 248.067 198.688 253.019 198.688C257.97 198.688 261.998 202.712 261.998 207.659C261.998 212.606 257.97 216.63 253.019 216.63ZM253.019 201.055C249.378 201.055 246.408 204.014 246.408 207.659C246.408 211.304 249.37 214.263 253.019 214.263C256.667 214.263 259.629 211.304 259.629 207.659C259.629 204.014 256.667 201.055 253.019 201.055Z" fill="#6A2EA0"/>
<path d="M320.291 220.078C319.635 220.078 319.106 219.549 319.106 218.894C319.106 213.355 314.596 208.842 309.044 208.842H253.019C252.363 208.842 251.834 208.314 251.834 207.659C251.834 207.004 252.363 206.475 253.019 206.475H309.044C315.9 206.475 321.475 212.046 321.475 218.894C321.475 219.541 320.946 220.078 320.291 220.078Z" fill="#6A2EA0"/>
<path d="M261.706 229.759C260.79 229.759 259.921 229.601 259.195 229.285C257.505 228.56 256.683 227.1 256.991 225.388C257.655 221.711 264.842 209.458 265.655 208.077C265.987 207.517 266.713 207.327 267.274 207.659C267.835 207.99 268.024 208.716 267.693 209.276C265.537 212.937 259.819 223.044 259.321 225.806C259.274 226.074 259.163 226.69 260.135 227.108C261.58 227.731 264.178 227.337 265.229 225.916C265.616 225.388 266.358 225.277 266.887 225.664C267.416 226.05 267.527 226.792 267.14 227.321C265.908 228.978 263.712 229.759 261.706 229.759Z" fill="#6A2EA0"/>
<path d="M227.984 361.05C227.912 361.05 227.841 361.042 227.77 361.034C227.123 360.915 226.696 360.308 226.815 359.661C226.909 359.124 229.287 346.311 239.522 331.588C248.96 318.017 267.132 300.304 300.144 292.958C300.784 292.816 301.416 293.219 301.558 293.858C301.7 294.497 301.297 295.128 300.657 295.27C268.388 302.45 250.658 319.721 241.465 332.937C231.522 347.242 229.16 359.945 229.144 360.071C229.042 360.647 228.544 361.05 227.984 361.05Z" fill="#6A2EA0"/>
<path d="M268.159 251.038C266.8 251.038 265.884 250.865 265.774 250.841C265.134 250.715 264.715 250.092 264.842 249.445C264.968 248.805 265.592 248.387 266.232 248.514C266.524 248.569 273.19 249.792 277.115 244.34C277.494 243.811 278.236 243.693 278.765 244.071C279.294 244.45 279.413 245.192 279.034 245.72C275.772 250.273 271.002 251.038 268.159 251.038Z" fill="#6A2EA0"/>
<path d="M342.712 307.823C342.056 307.823 341.527 307.295 341.527 306.64V202.806C341.527 202.152 342.056 201.623 342.712 201.623C343.367 201.623 343.897 202.152 343.897 202.806V306.632C343.897 307.287 343.367 307.823 342.712 307.823Z" fill="#6A2EA0"/>
<path d="M180.788 293.929C180.33 293.929 179.895 293.661 179.698 293.211C179.437 292.611 179.714 291.917 180.314 291.656L198.818 283.664C199.418 283.403 200.113 283.68 200.374 284.279C200.634 284.879 200.358 285.573 199.758 285.834L181.254 293.826C181.104 293.897 180.946 293.929 180.788 293.929Z" fill="#6A2EA0"/>
<path d="M210.293 269.556C209.835 269.556 209.4 269.288 209.203 268.838L186.134 215.383L152.743 229.806L161.304 249.721C161.565 250.32 161.28 251.015 160.68 251.275C160.08 251.535 159.385 251.251 159.124 250.652L150.097 229.648C149.837 229.049 150.113 228.354 150.713 228.094L186.284 212.732C186.576 212.606 186.9 212.606 187.192 212.716C187.485 212.835 187.721 213.056 187.84 213.347L211.383 267.892C211.643 268.491 211.367 269.186 210.767 269.446C210.609 269.525 210.451 269.556 210.293 269.556Z" fill="#6A2EA0"/>
<path d="M167.449 359.795C166.864 359.795 166.359 359.361 166.28 358.769C163.018 334.318 165.277 310.569 165.545 307.91L155.689 275.482C155.657 275.371 155.642 275.253 155.642 275.135V249.942C155.642 249.381 156.036 248.9 156.581 248.782C156.739 248.75 160.412 248.016 163.903 250.849C167.82 254.029 169.826 260.246 169.865 269.328C181.791 283.467 182.557 287.064 181.491 300.43C181.435 301.085 180.867 301.566 180.219 301.519C179.564 301.464 179.082 300.896 179.129 300.249C180.148 287.419 179.461 284.35 167.772 270.535C167.591 270.322 167.488 270.046 167.496 269.769C167.52 261.359 165.774 255.473 162.457 252.735C160.767 251.346 159.045 251.07 158.019 251.046V274.969L167.891 307.46C167.938 307.61 167.954 307.776 167.938 307.934C167.915 308.178 165.229 332.937 168.641 358.47C168.728 359.117 168.27 359.716 167.622 359.803C167.551 359.787 167.496 359.795 167.449 359.795Z" fill="#6A2EA0"/>
<path d="M212.875 344.701C212.567 344.701 212.259 344.583 212.03 344.346C201.668 333.734 196.551 314.183 195.224 308.446C195.074 307.807 195.477 307.176 196.108 307.026C196.748 306.876 197.38 307.279 197.53 307.918C198.817 313.504 203.793 332.527 213.72 342.697C214.178 343.163 214.17 343.912 213.696 344.37C213.467 344.591 213.175 344.701 212.875 344.701Z" fill="#6A2EA0"/>
<path d="M232.54 318.656C221.412 318.656 209.937 316.029 209.361 315.895C209.297 315.879 209.234 315.863 209.179 315.832C209.053 315.776 196.495 310.537 182.99 301.338C182.603 301.077 182.406 300.604 182.493 300.146C182.943 297.677 184.491 295.641 186.845 294.418C190.162 292.69 194.545 292.824 198.88 294.797C203.272 296.793 208.144 297.637 211.256 297.992C205.514 292.445 191.275 278.669 189.032 276.31C187.224 274.409 185.786 270.756 186.536 267.434C186.923 265.714 188.061 263.402 191.243 262.187C191.63 262.037 192.065 262.108 192.389 262.361L220.978 284.492C221.491 284.895 221.586 285.636 221.191 286.149C220.789 286.67 220.046 286.757 219.533 286.362L191.496 264.665C190.075 265.367 189.182 266.471 188.851 267.963C188.29 270.44 189.411 273.273 190.754 274.685C193.486 277.549 215.055 298.371 215.276 298.576C215.623 298.915 215.734 299.428 215.544 299.878C215.355 300.328 214.897 300.612 214.431 300.604C214.068 300.596 205.467 300.391 197.909 296.951C194.245 295.286 190.62 295.128 187.95 296.517C186.497 297.274 185.478 298.434 185.02 299.846C197.451 308.21 208.879 313.133 210.008 313.607C211.382 313.914 227.091 317.347 238.819 315.95C239.466 315.871 240.059 316.337 240.138 316.984C240.217 317.631 239.751 318.222 239.103 318.301C236.979 318.554 234.767 318.656 232.54 318.656Z" fill="#6A2EA0"/>
<path d="M256.194 281.833C255.886 281.833 255.57 281.715 255.341 281.47C245.445 271.142 230.337 260.672 227.012 258.416L204.536 273.738C203.999 274.109 203.256 273.967 202.893 273.43C202.522 272.894 202.664 272.152 203.201 271.789L226.341 256.017C226.736 255.749 227.265 255.741 227.66 256.009C227.841 256.127 245.745 268.049 257.047 279.845C257.497 280.318 257.481 281.068 257.007 281.518C256.786 281.723 256.494 281.833 256.194 281.833Z" fill="#6A2EA0"/>
<path d="M228.599 279.419C228.346 279.419 228.086 279.332 227.864 279.166L212.654 267.189C212.14 266.787 212.053 266.037 212.456 265.525C212.859 265.012 213.609 264.925 214.123 265.327L229.333 277.304C229.847 277.707 229.934 278.456 229.531 278.969C229.294 279.261 228.954 279.419 228.599 279.419Z" fill="#6A2EA0"/>
<path d="M235.296 274.204C235.028 274.204 234.752 274.109 234.53 273.92L220.346 261.887C219.849 261.461 219.786 260.719 220.212 260.222C220.639 259.725 221.381 259.662 221.878 260.088L236.063 272.121C236.56 272.547 236.623 273.288 236.197 273.785C235.968 274.062 235.636 274.204 235.296 274.204Z" fill="#6A2EA0"/>
<path d="M206.526 337.08H180.772C180.116 337.08 179.587 336.551 179.587 335.896C179.587 335.241 180.116 334.713 180.772 334.713H206.526C207.181 334.713 207.71 335.241 207.71 335.896C207.71 336.551 207.181 337.08 206.526 337.08Z" fill="#6A2EA0"/>
<path d="M187.903 173.937H112.812C106.747 173.937 101.811 169.005 101.811 162.946V106.808C101.811 100.748 106.747 95.817 112.812 95.817H215.994C222.06 95.817 226.996 100.748 226.996 106.808V134.873C226.996 135.528 226.467 136.056 225.811 136.056C225.156 136.056 224.626 135.528 224.626 134.873V106.808C224.626 102.05 220.757 98.184 215.994 98.184H112.812C108.05 98.184 104.18 102.05 104.18 106.808V162.946C104.18 167.703 108.05 171.57 112.812 171.57H187.903C188.558 171.57 189.087 172.098 189.087 172.753C189.087 173.408 188.558 173.937 187.903 173.937Z" fill="#6A2EA0"/>
<path d="M83.6542 286.354H55.2227C54.5672 286.354 54.0381 285.826 54.0381 285.171V209.174C54.0381 208.519 54.5672 207.99 55.2227 207.99H112.086C112.741 207.99 113.27 208.519 113.27 209.174V227.581C113.27 228.236 112.741 228.765 112.086 228.765C111.43 228.765 110.901 228.236 110.901 227.581V210.357H56.4074V283.987H83.6542C84.3097 283.987 84.8388 284.516 84.8388 285.171C84.8388 285.826 84.3097 286.354 83.6542 286.354Z" fill="#6A2EA0"/>
<path d="M121.95 240.789H83.6544C82.9989 240.789 82.4697 240.261 82.4697 239.606C82.4697 238.951 82.9989 238.422 83.6544 238.422H121.95C122.605 238.422 123.135 238.951 123.135 239.606C123.135 240.261 122.605 240.789 121.95 240.789Z" fill="#6A2EA0"/>
<path d="M121.95 255.883H83.6544C82.9989 255.883 82.4697 255.354 82.4697 254.699C82.4697 254.045 82.9989 253.516 83.6544 253.516H121.95C122.605 253.516 123.135 254.045 123.135 254.699C123.135 255.354 122.605 255.883 121.95 255.883Z" fill="#6A2EA0"/>
<path d="M121.95 270.969H83.6544C82.9989 270.969 82.4697 270.44 82.4697 269.785C82.4697 269.13 82.9989 268.602 83.6544 268.602H121.95C122.605 268.602 123.135 269.13 123.135 269.785C123.135 270.44 122.605 270.969 121.95 270.969Z" fill="#6A2EA0"/>
<path d="M206.857 136.064H187.902C187.247 136.064 186.718 135.536 186.718 134.881V127.638C186.718 126.983 187.247 126.454 187.902 126.454C188.558 126.454 189.087 126.983 189.087 127.638V133.697H205.672V115.55H194.536C193.881 115.55 193.352 115.021 193.352 114.366C193.352 113.712 193.881 113.183 194.536 113.183H206.857C207.512 113.183 208.041 113.712 208.041 114.366V134.881C208.041 135.528 207.512 136.064 206.857 136.064Z" fill="#6A2EA0"/>
<path d="M197.38 130.368C197.04 130.368 196.716 130.226 196.495 129.965L187.018 119.243C186.584 118.753 186.631 118.004 187.121 117.57C187.61 117.136 188.361 117.183 188.795 117.672L197.222 127.204L209.929 106.989C210.277 106.437 211.011 106.271 211.564 106.618C212.117 106.966 212.283 107.699 211.935 108.252L198.383 129.807C198.185 130.123 197.846 130.328 197.475 130.36C197.443 130.368 197.411 130.368 197.38 130.368Z" fill="#6A2EA0"/>
<path d="M103.414 149.178C98.6993 149.178 93.9607 148.112 89.8144 145.99C80.7638 141.359 71.2629 141.319 65.0317 145.887C64.5026 146.274 63.7602 146.164 63.3732 145.635C62.9862 145.106 63.0968 144.365 63.6259 143.978C70.5916 138.873 81.0402 138.834 90.8885 143.875C98.5255 147.789 108.319 147.789 115.829 143.875C124.39 139.425 134.815 139.441 143.029 143.923C143.605 144.238 143.81 144.956 143.502 145.532C143.187 146.108 142.468 146.313 141.891 146.006C134.468 141.958 124.667 141.95 116.919 145.982C112.844 148.112 108.137 149.178 103.414 149.178Z" fill="#6A2EA0"/>
<path d="M304.867 116.749H266.863C266.208 116.749 265.679 116.221 265.679 115.566V78.443C265.679 77.7882 266.208 77.2595 266.863 77.2595H286.655C287.31 77.2595 287.839 77.7882 287.839 78.443C287.839 79.0979 287.31 79.6265 286.655 79.6265H268.048V114.39H303.682V96.6375C303.682 95.9827 304.211 95.454 304.867 95.454C305.522 95.454 306.051 95.9827 306.051 96.6375V115.574C306.051 116.221 305.522 116.749 304.867 116.749Z" fill="#6A2EA0"/>
<path d="M304.883 87.8401C299.694 87.8401 295.469 83.6189 295.469 78.4351C295.469 73.2513 299.694 69.0302 304.883 69.0302C310.071 69.0302 314.297 73.2513 314.297 78.4351C314.297 83.6189 310.071 87.8401 304.883 87.8401ZM304.883 71.4051C300.997 71.4051 297.838 74.5611 297.838 78.443C297.838 82.3249 300.997 85.481 304.883 85.481C308.768 85.481 311.927 82.3249 311.927 78.443C311.927 74.5611 308.76 71.4051 304.883 71.4051Z" fill="#6A2EA0"/>
<path d="M285.928 98.2393C285.62 98.2393 285.32 98.1209 285.091 97.8921C284.633 97.4266 284.633 96.677 285.099 96.2194L323.173 58.4654C323.639 58.0078 324.389 58.0078 324.847 58.4733C325.305 58.9388 325.305 59.6884 324.839 60.146L286.765 97.9C286.528 98.1209 286.228 98.2393 285.928 98.2393Z" fill="#6A2EA0"/>
<path d="M96.2905 383.891C95.9825 383.891 95.6824 383.773 95.4533 383.544L57.5447 345.514C57.0867 345.049 57.0867 344.299 57.5447 343.841C58.0107 343.384 58.7609 343.384 59.219 343.841L97.1276 381.872C97.5857 382.337 97.5857 383.087 97.1276 383.544C96.8986 383.773 96.5906 383.891 96.2905 383.891Z" fill="#6A2EA0"/>
<path d="M172.108 229.167C171.65 229.167 171.216 228.899 171.018 228.457C170.757 227.857 171.034 227.163 171.634 226.903L181.719 222.539C182.32 222.279 183.015 222.555 183.275 223.155C183.536 223.755 183.259 224.449 182.659 224.709L172.574 229.072C172.424 229.136 172.266 229.167 172.108 229.167Z" fill="#6A2EA0"/>
<path d="M166.184 231.858C167.109 231.858 167.858 231.109 167.858 230.185C167.858 229.261 167.109 228.512 166.184 228.512C165.259 228.512 164.51 229.261 164.51 230.185C164.51 231.109 165.259 231.858 166.184 231.858Z" fill="#6A2EA0"/>
<defs>
<linearGradient id="paint0_linear_6319_78296" x1="62.0957" y1="98.411" x2="345.913" y2="382.5" gradientUnits="userSpaceOnUse">
<stop stop-color="#FF4C84"/>
<stop offset="0.2257" stop-color="#D45DA2"/>
<stop offset="0.7598" stop-color="#7382E5"/>
<stop offset="1" stop-color="#4C90FF"/>
</linearGradient>
</defs>
</svg>
